<svg id="Layer_1" data-name="Layer 1" xmlns="http://www.w3.org/2000/svg" viewBox="0 0 946.4 682"><defs><style>.cls-1{fill:#8c191b;}.cls-2{fill:#fff;}.cls-10,.cls-3,.cls-5{fill:none;}.cls-10,.cls-11,.cls-3,.cls-5,.cls-6,.cls-7{stroke:#1e1e1e;}.cls-3,.cls-4{stroke-linejoin:round;}.cls-11,.cls-3,.cls-4,.cls-5{stroke-width:10px;}.cls-11,.cls-4,.cls-6,.cls-8{fill:#1e1e1e;}.cls-4{stroke:#f0c230;}.cls-10,.cls-11,.cls-5,.cls-6,.cls-7{stroke-miterlimit:10;}.cls-6,.cls-7{stroke-width:5px;}.cls-7{fill:#00a651;}.cls-9{fill:#231f20;}.cls-10{stroke-width:20px;}</style></defs><title>Linker Addition Fig</title><path class="cls-1" d="M352.18,500.19H235a58.58,58.58,0,1,1,117.17,0Z"/><path class="cls-2" d="M277.83,474.89h-3.29v7.33h-4.12v-20h7.44a8.41,8.41,0,0,1,5.47,1.58,5.46,5.46,0,0,1,1.92,4.47,6.15,6.15,0,0,1-.89,3.42,6,6,0,0,1-2.69,2.18L286,482v.19h-4.43Zm-3.29-3.34h3.33a3.41,3.41,0,0,0,2.41-.79,2.83,2.83,0,0,0,.85-2.18,3,3,0,0,0-.8-2.23,3.34,3.34,0,0,0-2.47-.81h-3.31Z"/><path class="cls-2" d="M288.39,482.22v-20h7a9.21,9.21,0,0,1,5.53,1.4,4.77,4.77,0,0,1,1.88,4.09,4.52,4.52,0,0,1-.76,2.59,4.37,4.37,0,0,1-2.1,1.64,4.23,4.23,0,0,1,2.43,1.55,4.59,4.59,0,0,1,.89,2.86,5.28,5.28,0,0,1-1.84,4.37,8.3,8.3,0,0,1-5.25,1.51Zm4.13-11.63h3.05q3.12-.05,3.12-2.49a2.3,2.3,0,0,0-.79-2,4.16,4.16,0,0,0-2.5-.6h-2.89Zm0,2.92v5.4H296a3.41,3.41,0,0,0,2.28-.69,2.38,2.38,0,0,0,.82-1.92q0-2.75-2.85-2.79Z"/><path class="cls-2" d="M316.74,477a2.12,2.12,0,0,0-.83-1.79,10.82,10.82,0,0,0-3-1.32,21.07,21.07,0,0,1-3.4-1.37q-3.41-1.84-3.41-5a4.83,4.83,0,0,1,.92-2.89,6,6,0,0,1,2.63-2,9.89,9.89,0,0,1,3.84-.71,9,9,0,0,1,3.82.78,6.09,6.09,0,0,1,2.61,2.19,5.74,5.74,0,0,1,.93,3.22h-4.12a2.7,2.7,0,0,0-.87-2.14,3.56,3.56,0,0,0-2.43-.76,3.8,3.8,0,0,0-2.35.64,2,2,0,0,0-.84,1.68,1.93,1.93,0,0,0,1,1.64,11.14,11.14,0,0,0,2.9,1.24,12.51,12.51,0,0,1,5.13,2.63,5.23,5.23,0,0,1,1.61,3.91,4.82,4.82,0,0,1-2,4.08,8.61,8.61,0,0,1-5.29,1.48,10.21,10.21,0,0,1-4.21-.85,6.65,6.65,0,0,1-2.89-2.32,5.93,5.93,0,0,1-1-3.41h4.14q0,3.31,4,3.31a3.85,3.85,0,0,0,2.3-.6A2,2,0,0,0,316.74,477Z"/><path class="cls-3" d="M698.16,500h69.55c26,1.44,46.66,23,47,48.75"/><path class="cls-4" d="M615.67,500h82.49"/><path class="cls-3" d="M429.68,500h186"/><path class="cls-4" d="M373.69,500h56"/><path class="cls-3" d="M131.7,548.75c.33-25.75,21-47.31,47-48.75h195"/><polyline class="cls-5" points="254.01 414.8 211.53 414.8 211.53 500"/><polygon class="cls-6" points="281.74 414.8 254.01 430.81 254.01 398.79 281.74 414.8"/><polyline class="cls-5" points="680.85 414.8 723.34 414.8 766.65 414.8 724.16 414.8 724.16 500"/><rect class="cls-7" x="453.92" y="462.77" width="147.93" height="74.46"/><path class="cls-8" d="M522.25,505.7a7.16,7.16,0,0,1-3.15,2.07,13.2,13.2,0,0,1-4.51.74,8.93,8.93,0,0,1-4.56-1.13,7.56,7.56,0,0,1-3-3.29,11.59,11.59,0,0,1-1.09-5.07v-1.36a12.31,12.31,0,0,1,1-5.19,7.48,7.48,0,0,1,2.92-3.36,9.6,9.6,0,0,1,10,.54,7.26,7.26,0,0,1,2.38,4.94h-4a4,4,0,0,0-1.22-2.52,3.88,3.88,0,0,0-2.59-.8,3.66,3.66,0,0,0-3.2,1.58,8.32,8.32,0,0,0-1.11,4.7v1.28a7.92,7.92,0,0,0,1.2,4.76,4.1,4.1,0,0,0,3.51,1.61,4.58,4.58,0,0,0,3.31-1v-3.45h-3.75v-3h7.88Z"/><path class="cls-8" d="M537.64,500h-7.92v8.18h-4.12v-20h13v3.34h-8.91v5.17h7.92Z"/><path class="cls-8" d="M545.15,501.18v7.05H541v-20h7.81a9,9,0,0,1,4,.83,6.07,6.07,0,0,1,2.63,2.34,6.53,6.53,0,0,1,.92,3.46,5.75,5.75,0,0,1-2,4.64,8.39,8.39,0,0,1-5.58,1.7Zm0-3.34h3.69a3.62,3.62,0,0,0,2.5-.77,2.8,2.8,0,0,0,.86-2.2,3.3,3.3,0,0,0-.87-2.38,3.24,3.24,0,0,0-2.39-.93h-3.78Z"/><path class="cls-1" d="M352.18,167.32H235a58.58,58.58,0,1,1,117.17,0Z"/><path class="cls-2" d="M277.83,142h-3.29v7.33h-4.12v-20h7.44a8.41,8.41,0,0,1,5.47,1.58,5.46,5.46,0,0,1,1.92,4.47,6.15,6.15,0,0,1-.89,3.42,6,6,0,0,1-2.69,2.18l4.33,8.18v.19h-4.43Zm-3.29-3.34h3.33a3.41,3.41,0,0,0,2.41-.79,2.82,2.82,0,0,0,.85-2.18,3,3,0,0,0-.8-2.23,3.35,3.35,0,0,0-2.47-.81h-3.31Z"/><path class="cls-2" d="M288.39,149.35v-20h7a9.21,9.21,0,0,1,5.53,1.4,4.77,4.77,0,0,1,1.88,4.09,4.52,4.52,0,0,1-.76,2.59A4.36,4.36,0,0,1,300,139a4.23,4.23,0,0,1,2.43,1.55,4.59,4.59,0,0,1,.89,2.86,5.28,5.28,0,0,1-1.84,4.37,8.29,8.29,0,0,1-5.25,1.51Zm4.13-11.63h3.05q3.12-.05,3.12-2.49a2.3,2.3,0,0,0-.79-2,4.16,4.16,0,0,0-2.5-.6h-2.89Zm0,2.92V146H296a3.41,3.41,0,0,0,2.28-.69,2.38,2.38,0,0,0,.82-1.92q0-2.75-2.85-2.79Z"/><path class="cls-2" d="M316.74,144.09a2.12,2.12,0,0,0-.83-1.79,10.82,10.82,0,0,0-3-1.32,21.07,21.07,0,0,1-3.4-1.37q-3.41-1.84-3.41-5a4.83,4.83,0,0,1,.92-2.89,6,6,0,0,1,2.63-2,9.89,9.89,0,0,1,3.84-.71,9,9,0,0,1,3.82.78A6.09,6.09,0,0,1,320,132a5.74,5.74,0,0,1,.93,3.22h-4.12a2.7,2.7,0,0,0-.87-2.14,3.56,3.56,0,0,0-2.43-.76,3.81,3.81,0,0,0-2.35.64,2,2,0,0,0-.84,1.68,1.93,1.93,0,0,0,1,1.64,11.1,11.1,0,0,0,2.9,1.24,12.51,12.51,0,0,1,5.13,2.63,5.23,5.23,0,0,1,1.61,3.91,4.82,4.82,0,0,1-2,4.08,8.61,8.61,0,0,1-5.29,1.48,10.22,10.22,0,0,1-4.21-.85,6.65,6.65,0,0,1-2.89-2.32,5.93,5.93,0,0,1-1-3.41h4.14q0,3.31,4,3.31a3.85,3.85,0,0,0,2.3-.6A2,2,0,0,0,316.74,144.09Z"/><path class="cls-3" d="M131.7,215.88c.33-25.75,21-47.31,47-48.75h408c26,1.44,46.66,23,47,48.75"/><polyline class="cls-5" points="254.01 81.93 211.53 81.93 211.53 167.13"/><polygon class="cls-6" points="281.74 81.93 254.01 97.93 254.01 65.92 281.74 81.93"/><polyline class="cls-5" points="500.85 81.93 543.34 81.93 586.65 81.93 544.16 81.93 544.16 167.13"/><rect class="cls-7" x="363.92" y="129.89" width="147.93" height="74.46"/><path class="cls-8" d="M432.25,172.83a7.16,7.16,0,0,1-3.15,2.07,13.2,13.2,0,0,1-4.51.74A8.94,8.94,0,0,1,420,174.5a7.57,7.57,0,0,1-3-3.29,11.59,11.59,0,0,1-1.09-5.07v-1.36a12.31,12.31,0,0,1,1-5.19,7.48,7.48,0,0,1,2.92-3.35,9.6,9.6,0,0,1,10,.54,7.25,7.25,0,0,1,2.38,4.94h-4a4,4,0,0,0-1.22-2.52,3.89,3.89,0,0,0-2.59-.8,3.66,3.66,0,0,0-3.2,1.58,8.32,8.32,0,0,0-1.11,4.7V166a7.91,7.91,0,0,0,1.2,4.76,4.09,4.09,0,0,0,3.51,1.61,4.58,4.58,0,0,0,3.31-1v-3.45h-3.75v-3h7.88Z"/><path class="cls-8" d="M447.64,167.17h-7.92v8.18h-4.12v-20h13v3.34h-8.91v5.17h7.92Z"/><path class="cls-8" d="M455.15,168.3v7.05H451v-20h7.81a9,9,0,0,1,4,.83,6.08,6.08,0,0,1,2.63,2.34,6.54,6.54,0,0,1,.92,3.46,5.75,5.75,0,0,1-2,4.64,8.39,8.39,0,0,1-5.58,1.7Zm0-3.34h3.69a3.62,3.62,0,0,0,2.5-.77,2.8,2.8,0,0,0,.86-2.2,3.3,3.3,0,0,0-.87-2.38,3.23,3.23,0,0,0-2.39-.94h-3.78Z"/><path class="cls-9" d="M402.25,551.87l-11-11,2.19-2.19,10.75-.34a18.13,18.13,0,0,0,3.63-.46,4.63,4.63,0,0,0,2.17-1.14,3.48,3.48,0,0,0,1.14-2.23,2.77,2.77,0,0,0-.93-2.16,3,3,0,0,0-2.45-1,4.18,4.18,0,0,0-2.59,1.34l-3.2-3.2a7.45,7.45,0,0,1,3.39-2,7,7,0,0,1,3.89.08,8.54,8.54,0,0,1,3.6,2.22,8.07,8.07,0,0,1,2.67,5.05,6,6,0,0,1-2,4.75,7.67,7.67,0,0,1-3,1.81,19.13,19.13,0,0,1-5,.76l-7.51.2,6.92,6.92Z"/><path class="cls-9" d="M412,561.59l-3.19-3.19,12.31-12.31-5-2.63,2.6-2.6,9,4.28.34.34Z"/><path class="cls-9" d="M432.21,557.93l-1.28,1.48a5.9,5.9,0,0,1,5,1.83,4.9,4.9,0,0,1,1.71,3.95,7.36,7.36,0,0,1-2.39,4.29l-7.72,7.72L424.38,574l7.65-7.65a2.93,2.93,0,0,0,1-1.92,2.8,2.8,0,0,0-1-1.93,3.1,3.1,0,0,0-3.17-.87l-8.43,8.43-3.19-3.19,12-12Z"/><path class="cls-9" d="M448.71,568.55l-2.94,2.94,2,2-2.34,2.34-2-2-6,6a2,2,0,0,0-.7,1.21,1.8,1.8,0,0,0,.68,1.26,7.24,7.24,0,0,0,1,.86L436,585.54a9.28,9.28,0,0,1-2.22-1.65q-3.36-3.36,0-6.82l6.44-6.44-1.75-1.75,2.34-2.34,1.75,1.75,2.94-2.94Z"/><path class="cls-9" d="M446.64,596.27l-3.2-3.2,17-17,3.2,3.2Z"/><path class="cls-9" d="M452.64,602.27l-3.2-3.2,12-12,3.2,3.2Zm11.66-18.44a2.23,2.23,0,0,1,1.66-.7,2.93,2.93,0,0,1,2.61,2.61,2.39,2.39,0,0,1-2.38,2.37,2.9,2.9,0,0,1-2.6-2.6A2.22,2.22,0,0,1,464.3,583.83Z"/><path class="cls-9" d="M470.16,595.88l-1.28,1.48a5.91,5.91,0,0,1,5,1.83,4.91,4.91,0,0,1,1.71,3.95,7.37,7.37,0,0,1-2.39,4.29l-7.72,7.72L462.33,612l7.65-7.65a2.93,2.93,0,0,0,1-1.92,2.8,2.8,0,0,0-1-1.93,3.11,3.11,0,0,0-3.17-.87L458.4,608l-3.19-3.19,12-12Z"/><path class="cls-9" d="M477.08,617.12h-2.3l-3.65,3.65-3.19-3.19,17-17,3.19,3.19-9.4,9.4,1.41-.18,6.65-.53,3.83,3.83-9.3.66L479,628.65,475.36,625Z"/><path class="cls-9" d="M485.09,635.16a8.3,8.3,0,0,1-2.67-5.89,8.11,8.11,0,0,1,2.65-6l.31-.31a10.23,10.23,0,0,1,3.92-2.53,7.24,7.24,0,0,1,4.16-.21,7.84,7.84,0,0,1,3.68,2.14,7,7,0,0,1,2.31,5.41,8.89,8.89,0,0,1-3,5.79l-1.3,1.3-7.61-7.61a4.2,4.2,0,0,0-.94,2.81,4,4,0,0,0,1.26,2.68,4.88,4.88,0,0,0,4.22,1.55l-.19,3.33a6.78,6.78,0,0,1-3.53-.36A9,9,0,0,1,485.09,635.16ZM494.55,625a2.82,2.82,0,0,0-2.18-.9,4.72,4.72,0,0,0-2.6,1.09l4.44,4.44.26-.26a3.36,3.36,0,0,0,1.07-2.22A2.91,2.91,0,0,0,494.55,625Z"/><path class="cls-9" d="M507.72,639.42a12.24,12.24,0,0,0-1.06-1.24q-1.81-1.81-3.6-1.15l-7.82,7.82L492,641.67l12-12,3,3-1.34,1.51a4.19,4.19,0,0,1,4.31,1,4.76,4.76,0,0,1,.85,1.14Z"/><path class="cls-9" d="M666.56,532.64l1.7,1.7a3.4,3.4,0,0,0,2.41,1.19,3.14,3.14,0,0,0,2.2-1,2.78,2.78,0,0,0,.93-2.09,3.18,3.18,0,0,0-1.05-2.14,3.33,3.33,0,0,0-2-1,2.27,2.27,0,0,0-1.93.69l-3.19-3.19a5.56,5.56,0,0,1,2.94-1.58,6.41,6.41,0,0,1,3.46.34,9,9,0,0,1,3.25,2.13,8.51,8.51,0,0,1,2.78,5.22,5.89,5.89,0,0,1-1.92,4.81A4.79,4.79,0,0,1,673.4,539a6.19,6.19,0,0,1-3.19-.34,5.67,5.67,0,0,1,.57,3.49,5.6,5.6,0,0,1-1.63,3,6,6,0,0,1-5,1.87,8.89,8.89,0,0,1-5.43-2.84,8.43,8.43,0,0,1-2.67-5.21,5.87,5.87,0,0,1,1.83-4.89l3.19,3.19a2.61,2.61,0,0,0-.8,2.16,4,4,0,0,0,3.49,3.43,2.94,2.94,0,0,0,2.24-1q2.41-2.41-.24-5.06l-1.69-1.69Z"/><path class="cls-9" d="M684.31,556q-3.34,3.34-6.49,3.72a7.81,7.81,0,0,1-8.1-8q.34-3.13,3.55-6.4l3-3q3.37-3.37,6.51-3.72a7.82,7.82,0,0,1,8.07,8q-.34,3.12-3.54,6.39Zm.06-6.45a8.33,8.33,0,0,0,2.37-3.46,2.61,2.61,0,0,0-.79-2.62,2.56,2.56,0,0,0-2.53-.79,7.79,7.79,0,0,0-3.28,2.15l-3.92,3.92a8.73,8.73,0,0,0-2.39,3.46,2.58,2.58,0,0,0,.76,2.67,2.54,2.54,0,0,0,2.61.77,8.54,8.54,0,0,0,3.35-2.27Z"/><path class="cls-9" d="M694.84,555.93l-1.28,1.48a5.91,5.91,0,0,1,5,1.83,4.91,4.91,0,0,1,1.71,3.95,7.37,7.37,0,0,1-2.39,4.29l-7.72,7.72L687,572l7.65-7.65a2.93,2.93,0,0,0,1-1.92,2.8,2.8,0,0,0-1-1.93,3.1,3.1,0,0,0-3.17-.87l-8.43,8.43-3.19-3.19,12-12Z"/><path class="cls-9" d="M711.34,566.55l-2.94,2.94,2,2-2.34,2.34-2-2-6,6a2,2,0,0,0-.7,1.21,1.8,1.8,0,0,0,.69,1.26,7.18,7.18,0,0,0,1,.86l-2.42,2.42a9.3,9.3,0,0,1-2.22-1.65q-3.36-3.36,0-6.82l6.44-6.44-1.75-1.75,2.34-2.34,1.75,1.75,2.94-2.94Z"/><path class="cls-9" d="M709.27,594.27l-3.2-3.2,17-17,3.2,3.2Z"/><path class="cls-9" d="M715.27,600.27l-3.2-3.2,12-12,3.21,3.2Zm11.66-18.44a2.23,2.23,0,0,1,1.66-.7,2.93,2.93,0,0,1,2.61,2.61,2.39,2.39,0,0,1-2.38,2.37,2.9,2.9,0,0,1-2.6-2.6A2.21,2.21,0,0,1,726.93,581.83Z"/><path class="cls-9" d="M732.79,593.88l-1.28,1.48a5.91,5.91,0,0,1,5,1.83,4.91,4.91,0,0,1,1.71,3.95,7.36,7.36,0,0,1-2.39,4.29l-7.72,7.72L725,610l7.65-7.65a2.93,2.93,0,0,0,1-1.92,2.8,2.8,0,0,0-1-1.93,3.11,3.11,0,0,0-3.17-.87L721,606l-3.19-3.19,12-12Z"/><path class="cls-9" d="M739.71,615.12h-2.3l-3.65,3.65-3.19-3.19,17-17,3.19,3.19-9.4,9.4,1.41-.18,6.65-.53,3.83,3.83-9.3.66-2.28,11.67L738,623Z"/><path class="cls-9" d="M747.72,633.16a8.3,8.3,0,0,1-2.67-5.89,8.12,8.12,0,0,1,2.65-6L748,621a10.22,10.22,0,0,1,3.92-2.53,7.24,7.24,0,0,1,4.16-.21,7.83,7.83,0,0,1,3.68,2.14,7,7,0,0,1,2.32,5.41,8.89,8.89,0,0,1-3,5.79l-1.3,1.3-7.61-7.61a4.19,4.19,0,0,0-.95,2.81,4,4,0,0,0,1.27,2.68,4.87,4.87,0,0,0,4.22,1.55l-.19,3.33a6.78,6.78,0,0,1-3.53-.36A9,9,0,0,1,747.72,633.16ZM757.18,623a2.82,2.82,0,0,0-2.19-.9,4.72,4.72,0,0,0-2.6,1.09l4.44,4.44.26-.26a3.36,3.36,0,0,0,1.07-2.22A2.91,2.91,0,0,0,757.18,623Z"/><path class="cls-9" d="M770.35,637.42a12.24,12.24,0,0,0-1.06-1.24q-1.81-1.81-3.6-1.15l-7.82,7.82-3.19-3.19,12-12,3,3-1.34,1.51a4.18,4.18,0,0,1,4.31,1,4.79,4.79,0,0,1,.85,1.14Z"/><line class="cls-10" x1="443.09" y1="341.82" x2="375.2" y2="273.92"/><polygon class="cls-11" points="472.36 371.08 426.2 358.71 459.99 324.92 472.36 371.08"/></svg>