<svg id="Layer_1" data-name="Layer 1" xmlns="http://www.w3.org/2000/svg" viewBox="0 0 987.41 682"><defs><style>.cls-1{fill:none;stroke-width:10px;}.cls-1,.cls-2,.cls-3,.cls-4,.cls-6{stroke:#1e1e1e;stroke-miterlimit:10;}.cls-2,.cls-7{fill:#6aaebd;}.cls-2,.cls-3,.cls-4,.cls-6{stroke-width:5px;}.cls-3,.cls-5{fill:#1e1e1e;}.cls-4{fill:#00a651;}.cls-6{fill:#aaaaa9;}.cls-8{fill:#231f20;}</style></defs><title>Cre Recombination Figure</title><line class="cls-1" x1="209.06" y1="195.11" x2="798.07" y2="195.11"/><polygon class="cls-2" points="393.66 195.11 329.18 232.34 329.18 157.88 393.66 195.11"/><polyline class="cls-1" points="291.15 109.91 248.66 109.91 248.66 195.11"/><polygon class="cls-3" points="318.88 109.91 291.15 125.92 291.15 93.9 318.88 109.91"/><polyline class="cls-1" points="393.66 109.91 436.15 109.91 479.46 109.91 436.97 109.91 436.97 195.11"/><rect class="cls-4" x="581.07" y="157.88" width="84.68" height="74.46"/><path class="cls-5" d="M614.65,200.81a7.17,7.17,0,0,1-3.15,2.07,13.2,13.2,0,0,1-4.51.73,8.93,8.93,0,0,1-4.56-1.13,7.57,7.57,0,0,1-3-3.29,11.59,11.59,0,0,1-1.09-5.07v-1.36a12.31,12.31,0,0,1,1-5.19,7.48,7.48,0,0,1,2.92-3.35,9.6,9.6,0,0,1,10,.54,7.26,7.26,0,0,1,2.38,4.94h-4a4,4,0,0,0-1.22-2.52,3.88,3.88,0,0,0-2.59-.8,3.66,3.66,0,0,0-3.2,1.58,8.32,8.32,0,0,0-1.11,4.7v1.28a7.92,7.92,0,0,0,1.2,4.76,4.1,4.1,0,0,0,3.51,1.61,4.58,4.58,0,0,0,3.31-1v-3.45h-3.75v-3h7.88Z"/><path class="cls-5" d="M630,195.16h-7.92v8.18H618v-20h13v3.34h-8.91v5.17H630Z"/><path class="cls-5" d="M637.55,196.29v7.05h-4.12v-20h7.81a9,9,0,0,1,4,.83,6.07,6.07,0,0,1,2.63,2.34,6.54,6.54,0,0,1,.92,3.46,5.75,5.75,0,0,1-2,4.64,8.39,8.39,0,0,1-5.58,1.7Zm0-3.34h3.69a3.62,3.62,0,0,0,2.5-.77,2.8,2.8,0,0,0,.86-2.2,3.3,3.3,0,0,0-.87-2.38,3.24,3.24,0,0,0-2.39-.94h-3.78Z"/><polygon class="cls-2" points="568.32 195.11 503.84 232.34 503.84 157.88 568.32 195.11"/><polyline class="cls-1" points="678.5 109.91 720.99 109.91 764.3 109.91 721.81 109.91 721.81 195.11"/><line class="cls-1" x1="209.06" y1="602.47" x2="613.42" y2="602.47"/><polyline class="cls-1" points="291.15 517.27 248.66 517.27 248.66 602.47"/><polygon class="cls-3" points="318.88 517.27 291.15 533.28 291.15 501.26 318.88 517.27"/><polygon class="cls-6" points="395.42 602.47 330.93 639.71 330.93 565.24 395.42 602.47"/><polyline class="cls-1" points="503.56 522.64 546.05 522.64 589.36 522.64 546.87 522.64 546.87 607.84"/><rect class="cls-4" x="407.15" y="565.24" width="84.68" height="74.46"/><path class="cls-5" d="M440.73,608.17a7.17,7.17,0,0,1-3.15,2.07,13.2,13.2,0,0,1-4.51.73,8.93,8.93,0,0,1-4.56-1.13,7.57,7.57,0,0,1-3-3.29,11.59,11.59,0,0,1-1.09-5.07v-1.36a12.31,12.31,0,0,1,1-5.19,7.48,7.48,0,0,1,2.92-3.35,9.6,9.6,0,0,1,10,.54,7.26,7.26,0,0,1,2.38,4.94h-4a4,4,0,0,0-1.22-2.52,3.88,3.88,0,0,0-2.59-.8,3.66,3.66,0,0,0-3.2,1.58,8.32,8.32,0,0,0-1.11,4.7v1.28a7.92,7.92,0,0,0,1.2,4.76,4.1,4.1,0,0,0,3.51,1.61,4.58,4.58,0,0,0,3.31-1v-3.45h-3.75v-3h7.88Z"/><path class="cls-5" d="M456.12,602.52H448.2v8.18h-4.12v-20h13V594H448.2v5.17h7.92Z"/><path class="cls-5" d="M463.63,603.65v7.05H459.5v-20h7.81a9,9,0,0,1,4,.83,6.07,6.07,0,0,1,2.63,2.34,6.54,6.54,0,0,1,.92,3.46,5.75,5.75,0,0,1-2,4.64,8.39,8.39,0,0,1-5.58,1.7Zm0-3.34h3.69a3.62,3.62,0,0,0,2.5-.77,2.8,2.8,0,0,0,.86-2.2,3.3,3.3,0,0,0-.87-2.38,3.24,3.24,0,0,0-2.39-.94h-3.78Z"/><path class="cls-7" d="M335.4,270.56h-4.34v-23h4.34Z"/><path class="cls-7" d="M338.29,262.31a9.6,9.6,0,0,1,.93-4.3,6.8,6.8,0,0,1,2.67-2.92,7.8,7.8,0,0,1,4-1,7.37,7.37,0,0,1,5.35,2,8.05,8.05,0,0,1,2.31,5.45l0,1.11a8.46,8.46,0,0,1-2.08,6,8.07,8.07,0,0,1-11.18,0,8.62,8.62,0,0,1-2.09-6.11Zm4.33.31a6.06,6.06,0,0,0,.87,3.53,3.12,3.12,0,0,0,4.94,0,6.63,6.63,0,0,0,.88-3.86,6,6,0,0,0-.88-3.51,2.87,2.87,0,0,0-2.48-1.24,2.83,2.83,0,0,0-2.46,1.24A6.74,6.74,0,0,0,342.62,262.62Z"/><path class="cls-7" d="M362.16,259.2l2.72-4.84h4.63l-4.61,7.93,4.81,8.26h-4.64l-2.89-5.09-2.87,5.09h-4.66l4.81-8.26-4.6-7.93h4.64Z"/><path class="cls-7" d="M376.37,262.88v7.68h-4.49v-21.8h8.5a9.84,9.84,0,0,1,4.32.9,6.63,6.63,0,0,1,2.87,2.55,7.12,7.12,0,0,1,1,3.77,6.26,6.26,0,0,1-2.19,5.05,9.13,9.13,0,0,1-6.07,1.85Zm0-3.64h4a4,4,0,0,0,2.72-.84A3.05,3.05,0,0,0,384,256a3.6,3.6,0,0,0-.94-2.59,3.52,3.52,0,0,0-2.6-1h-4.12Z"/><path class="cls-7" d="M505.22,270.56h-4.34v-23h4.34Z"/><path class="cls-7" d="M508.11,262.31A9.6,9.6,0,0,1,509,258a6.8,6.8,0,0,1,2.67-2.92,7.8,7.8,0,0,1,4-1,7.37,7.37,0,0,1,5.35,2,8.05,8.05,0,0,1,2.31,5.45l0,1.11a8.46,8.46,0,0,1-2.08,6,8.07,8.07,0,0,1-11.18,0,8.62,8.62,0,0,1-2.09-6.11Zm4.33.31a6.06,6.06,0,0,0,.87,3.53,3.12,3.12,0,0,0,4.94,0,6.63,6.63,0,0,0,.88-3.86,6,6,0,0,0-.88-3.51,2.87,2.87,0,0,0-2.48-1.24,2.83,2.83,0,0,0-2.46,1.24A6.74,6.74,0,0,0,512.43,262.62Z"/><path class="cls-7" d="M532,259.2l2.72-4.84h4.63l-4.61,7.93,4.81,8.26h-4.64L532,265.47l-2.87,5.09h-4.66l4.81-8.26-4.6-7.93h4.64Z"/><path class="cls-7" d="M546.18,262.88v7.68h-4.49v-21.8h8.5a9.84,9.84,0,0,1,4.32.9,6.63,6.63,0,0,1,2.87,2.55,7.12,7.12,0,0,1,1,3.77,6.26,6.26,0,0,1-2.19,5.05,9.13,9.13,0,0,1-6.07,1.85Zm0-3.64h4a4,4,0,0,0,2.72-.84,3.05,3.05,0,0,0,.94-2.4,3.6,3.6,0,0,0-.94-2.59,3.52,3.52,0,0,0-2.6-1h-4.12Z"/><path class="cls-8" d="M238.2,41.28h-7v19h-4.69v-19h-6.87v-3.8H238.2Z"/><path class="cls-8" d="M245.11,52.31h-8.8V48.67h8.8Z"/><path class="cls-8" d="M262.72,50.37h-9v6.09h10.56v3.77H249V37.48h15.22v3.8H253.72V46.7h9Z"/><path class="cls-8" d="M273.17,48.37l2.84-5h4.83L276,51.61l5,8.63H276.2l-3-5.31-3,5.31h-4.86l5-8.62-4.8-8.28h4.84Z"/><path class="cls-8" d="M289.73,56.9a3,3,0,0,0,2-.69,2.41,2.41,0,0,0,.81-1.83h4.23a5.8,5.8,0,0,1-.94,3.15,6.19,6.19,0,0,1-2.52,2.22,7.91,7.91,0,0,1-3.54.79,7.34,7.34,0,0,1-5.72-2.3A9.12,9.12,0,0,1,282,51.87v-.3a9,9,0,0,1,2.08-6.23,7.25,7.25,0,0,1,5.7-2.33,7.11,7.11,0,0,1,5.09,1.8,6.39,6.39,0,0,1,1.95,4.8h-4.23a3.11,3.11,0,0,0-.81-2.14,3,3,0,0,0-4.45.33,6.66,6.66,0,0,0-.8,3.73V52a6.75,6.75,0,0,0,.8,3.76A2.75,2.75,0,0,0,289.73,56.9Z"/><path class="cls-8" d="M299.36,38.95a2.22,2.22,0,0,1,.68-1.67,2.93,2.93,0,0,1,3.7,0,2.39,2.39,0,0,1,0,3.36,2.9,2.9,0,0,1-3.67,0A2.22,2.22,0,0,1,299.36,38.95Zm4.8,21.28h-4.53V43.32h4.53Z"/><path class="cls-8" d="M317,55.56a1.46,1.46,0,0,0-.82-1.3,9.33,9.33,0,0,0-2.63-.85q-6-1.27-6-5.12a4.65,4.65,0,0,1,1.87-3.76A7.53,7.53,0,0,1,314.29,43a8.11,8.11,0,0,1,5.15,1.52,4.78,4.78,0,0,1,1.93,3.94h-4.52a2.19,2.19,0,0,0-.62-1.6,2.65,2.65,0,0,0-2-.63,2.7,2.7,0,0,0-1.77.52,1.63,1.63,0,0,0-.62,1.31,1.39,1.39,0,0,0,.71,1.21,7.3,7.3,0,0,0,2.4.8,19.7,19.7,0,0,1,2.84.76q3.58,1.31,3.58,4.55a4.41,4.41,0,0,1-2,3.74,8.56,8.56,0,0,1-5.12,1.43,8.94,8.94,0,0,1-3.77-.76A6.32,6.32,0,0,1,308,57.71a4.83,4.83,0,0,1-.94-2.85h4.28a2.35,2.35,0,0,0,.89,1.84,3.53,3.53,0,0,0,2.22.64,3.27,3.27,0,0,0,2-.49A1.53,1.53,0,0,0,317,55.56Z"/><path class="cls-8" d="M324.29,38.95a2.22,2.22,0,0,1,.68-1.67,2.93,2.93,0,0,1,3.7,0,2.39,2.39,0,0,1,0,3.36,2.9,2.9,0,0,1-3.67,0A2.22,2.22,0,0,1,324.29,38.95Zm4.8,21.28h-4.53V43.32h4.53Z"/><path class="cls-8" d="M332.11,51.62a10,10,0,0,1,1-4.48,7.09,7.09,0,0,1,2.79-3A8.13,8.13,0,0,1,340.09,43a7.7,7.7,0,0,1,5.59,2.09,8.41,8.41,0,0,1,2.41,5.69l0,1.16A8.84,8.84,0,0,1,346,58.19a8.42,8.42,0,0,1-11.66,0,9,9,0,0,1-2.18-6.37Zm4.52.32a6.31,6.31,0,0,0,.91,3.69,3.26,3.26,0,0,0,5.16,0,6.92,6.92,0,0,0,.92-4,6.26,6.26,0,0,0-.92-3.66,3,3,0,0,0-2.59-1.3,3,3,0,0,0-2.56,1.29A7,7,0,0,0,336.62,51.94Z"/><path class="cls-8" d="M355.06,43.32l.14,2A5.9,5.9,0,0,1,360.06,43a4.91,4.91,0,0,1,4,1.58,7.37,7.37,0,0,1,1.34,4.72V60.23h-4.52V49.42a2.93,2.93,0,0,0-.62-2.09,2.8,2.8,0,0,0-2.08-.65,3.11,3.11,0,0,0-2.86,1.63V60.23h-4.52V43.32Z"/><path class="cls-8" d="M388.89,54.26a2.41,2.41,0,0,0-.94-2,12.32,12.32,0,0,0-3.37-1.5,23.81,23.81,0,0,1-3.86-1.55q-3.88-2.09-3.87-5.64a5.49,5.49,0,0,1,1-3.29,6.78,6.78,0,0,1,3-2.26,11.24,11.24,0,0,1,4.37-.81,10.24,10.24,0,0,1,4.34.88,6.93,6.93,0,0,1,3,2.49,6.52,6.52,0,0,1,1.05,3.66H388.9a3.07,3.07,0,0,0-1-2.43,4,4,0,0,0-2.77-.87,4.32,4.32,0,0,0-2.67.73,2.29,2.29,0,0,0-1,1.91,2.19,2.19,0,0,0,1.12,1.86,12.61,12.61,0,0,0,3.29,1.41,14.22,14.22,0,0,1,5.83,3,5.94,5.94,0,0,1,1.83,4.44,5.47,5.47,0,0,1-2.23,4.63,9.78,9.78,0,0,1-6,1.68,11.62,11.62,0,0,1-4.78-1,7.56,7.56,0,0,1-3.29-2.63,6.74,6.74,0,0,1-1.13-3.87h4.7q0,3.77,4.5,3.77a4.38,4.38,0,0,0,2.61-.68A2.21,2.21,0,0,0,388.89,54.26Z"/><path class="cls-8" d="M411.17,54.09l2.22-10.77h4.36l-4.31,16.91h-3.78l-3.2-10.64-3.2,10.64h-3.77l-4.31-16.91h4.36l2.2,10.75,3.09-10.75h3.27Z"/><path class="cls-8" d="M420,38.95a2.22,2.22,0,0,1,.68-1.67,2.93,2.93,0,0,1,3.7,0,2.39,2.39,0,0,1,0,3.36,2.9,2.9,0,0,1-3.67,0A2.22,2.22,0,0,1,420,38.95Zm4.8,21.28h-4.53V43.32h4.53Z"/><path class="cls-8" d="M433.87,39.17v4.16h2.89v3.31h-2.89v8.44a2,2,0,0,0,.36,1.34,1.8,1.8,0,0,0,1.38.41,7.18,7.18,0,0,0,1.33-.11v3.42a9.31,9.31,0,0,1-2.73.41q-4.75,0-4.84-4.8V46.64h-2.47V43.32h2.47V39.17Z"/><path class="cls-8" d="M446.31,56.9a3,3,0,0,0,2-.69,2.41,2.41,0,0,0,.81-1.83h4.23a5.8,5.8,0,0,1-.94,3.15,6.19,6.19,0,0,1-2.52,2.22,7.91,7.91,0,0,1-3.54.79,7.34,7.34,0,0,1-5.72-2.3,9.12,9.12,0,0,1-2.09-6.37v-.3a9,9,0,0,1,2.08-6.23,7.25,7.25,0,0,1,5.7-2.33,7.11,7.11,0,0,1,5.09,1.8,6.39,6.39,0,0,1,1.95,4.8h-4.23a3.11,3.11,0,0,0-.81-2.14,3,3,0,0,0-4.45.33,6.66,6.66,0,0,0-.8,3.73V52a6.75,6.75,0,0,0,.8,3.76A2.75,2.75,0,0,0,446.31,56.9Z"/><path class="cls-8" d="M460.37,45.17A5.64,5.64,0,0,1,464.89,43q5.5,0,5.58,6.39V60.23H466V49.53a3.14,3.14,0,0,0-.62-2.15,2.68,2.68,0,0,0-2.08-.7,3.07,3.07,0,0,0-2.87,1.53v12h-4.52v-24h4.52Z"/><path class="cls-8" d="M500.83,49.37a13.74,13.74,0,0,1-1.19,5.89,8.94,8.94,0,0,1-3.4,3.91,10,10,0,0,1-10.12,0,9,9,0,0,1-3.44-3.88,13.33,13.33,0,0,1-1.23-5.8V48.37a13.66,13.66,0,0,1,1.21-5.91,9,9,0,0,1,3.42-3.92,10,10,0,0,1,10.11,0,9,9,0,0,1,3.42,3.92,13.63,13.63,0,0,1,1.21,5.9Zm-4.75-1a9.58,9.58,0,0,0-1.28-5.44,4.53,4.53,0,0,0-7.3,0,9.46,9.46,0,0,0-1.3,5.38v1.11a9.69,9.69,0,0,0,1.28,5.41,4.49,4.49,0,0,0,7.31.07,9.64,9.64,0,0,0,1.28-5.4Z"/><path class="cls-8" d="M517.92,50.93h-9v9.3h-4.69V37.48H519v3.8H508.92v5.88h9Z"/><path class="cls-8" d="M535.45,50.93h-9v9.3h-4.69V37.48h14.81v3.8H526.45v5.88h9Z"/><path class="cls-8" d="M226.7,451.95h-7v19H215v-19h-6.87v-3.8H226.7Z"/><path class="cls-8" d="M233.6,463h-8.8v-3.64h8.8Z"/><path class="cls-8" d="M251.21,461h-9v6.09h10.56v3.77H237.52V448.15h15.22v3.8H242.21v5.42h9Z"/><path class="cls-8" d="M261.67,459l2.84-5h4.83l-4.81,8.28,5,8.63H264.7l-3-5.31-3,5.31h-4.86l5-8.62L254,454h4.84Z"/><path class="cls-8" d="M278.23,467.57a3,3,0,0,0,2-.69,2.41,2.41,0,0,0,.81-1.83h4.23a5.8,5.8,0,0,1-.94,3.15,6.19,6.19,0,0,1-2.52,2.22,7.9,7.9,0,0,1-3.54.79,7.34,7.34,0,0,1-5.72-2.3,9.11,9.11,0,0,1-2.09-6.37v-.3a9,9,0,0,1,2.08-6.23,7.26,7.26,0,0,1,5.7-2.33,7.11,7.11,0,0,1,5.09,1.8,6.39,6.39,0,0,1,1.95,4.8h-4.23a3.11,3.11,0,0,0-.81-2.14,3,3,0,0,0-4.45.33,6.66,6.66,0,0,0-.8,3.73v.47a6.75,6.75,0,0,0,.8,3.76A2.75,2.75,0,0,0,278.23,467.57Z"/><path class="cls-8" d="M287.85,449.62a2.23,2.23,0,0,1,.68-1.67,2.93,2.93,0,0,1,3.7,0,2.39,2.39,0,0,1,0,3.36,2.9,2.9,0,0,1-3.67,0A2.22,2.22,0,0,1,287.85,449.62Zm4.8,21.28h-4.53V454h4.53Z"/><path class="cls-8" d="M305.52,466.23a1.46,1.46,0,0,0-.82-1.3,9.36,9.36,0,0,0-2.63-.85q-6-1.27-6-5.12a4.65,4.65,0,0,1,1.87-3.76,7.54,7.54,0,0,1,4.88-1.51,8.11,8.11,0,0,1,5.15,1.52,4.78,4.78,0,0,1,1.93,3.94h-4.52a2.19,2.19,0,0,0-.62-1.6,2.65,2.65,0,0,0-2-.63,2.7,2.7,0,0,0-1.77.52,1.63,1.63,0,0,0-.62,1.31,1.39,1.39,0,0,0,.71,1.21,7.25,7.25,0,0,0,2.4.8,19.7,19.7,0,0,1,2.84.76q3.58,1.31,3.58,4.55a4.41,4.41,0,0,1-2,3.74,8.56,8.56,0,0,1-5.12,1.43,8.93,8.93,0,0,1-3.77-.76,6.31,6.31,0,0,1-2.59-2.08,4.82,4.82,0,0,1-.94-2.85h4.28a2.35,2.35,0,0,0,.89,1.84,3.53,3.53,0,0,0,2.22.64,3.27,3.27,0,0,0,2-.49A1.53,1.53,0,0,0,305.52,466.23Z"/><path class="cls-8" d="M312.79,449.62a2.23,2.23,0,0,1,.68-1.67,2.93,2.93,0,0,1,3.7,0,2.39,2.39,0,0,1,0,3.36,2.9,2.9,0,0,1-3.67,0A2.22,2.22,0,0,1,312.79,449.62Zm4.8,21.28h-4.53V454h4.53Z"/><path class="cls-8" d="M320.6,462.29a10,10,0,0,1,1-4.48,7.09,7.09,0,0,1,2.79-3,8.13,8.13,0,0,1,4.23-1.08,7.7,7.7,0,0,1,5.59,2.09,8.41,8.41,0,0,1,2.41,5.69l0,1.16a8.84,8.84,0,0,1-2.17,6.24,8.42,8.42,0,0,1-11.66,0,9,9,0,0,1-2.18-6.37Zm4.52.32a6.31,6.31,0,0,0,.91,3.69,3.26,3.26,0,0,0,5.16,0,6.91,6.91,0,0,0,.92-4,6.26,6.26,0,0,0-.92-3.66,3,3,0,0,0-2.59-1.3,3,3,0,0,0-2.56,1.29A7,7,0,0,0,325.12,462.61Z"/><path class="cls-8" d="M343.56,454l.14,2a5.9,5.9,0,0,1,4.86-2.27,4.91,4.91,0,0,1,4,1.58A7.37,7.37,0,0,1,353.9,460V470.9h-4.52V460.09a2.94,2.94,0,0,0-.62-2.09,2.8,2.8,0,0,0-2.08-.65,3.11,3.11,0,0,0-2.86,1.63V470.9h-4.52V454Z"/><path class="cls-8" d="M377.38,464.93a2.41,2.41,0,0,0-.94-2,12.38,12.38,0,0,0-3.37-1.5,23.72,23.72,0,0,1-3.86-1.55q-3.88-2.09-3.87-5.64a5.49,5.49,0,0,1,1-3.29,6.79,6.79,0,0,1,3-2.26,11.24,11.24,0,0,1,4.37-.81,10.24,10.24,0,0,1,4.34.88,6.93,6.93,0,0,1,3,2.49,6.53,6.53,0,0,1,1.05,3.66H377.4a3.07,3.07,0,0,0-1-2.43,4,4,0,0,0-2.77-.87,4.32,4.32,0,0,0-2.67.73,2.29,2.29,0,0,0-1,1.91,2.19,2.19,0,0,0,1.12,1.86,12.61,12.61,0,0,0,3.29,1.41,14.22,14.22,0,0,1,5.83,3,6,6,0,0,1,1.83,4.44,5.47,5.47,0,0,1-2.23,4.63,9.78,9.78,0,0,1-6,1.68,11.62,11.62,0,0,1-4.78-1,7.56,7.56,0,0,1-3.29-2.63,6.73,6.73,0,0,1-1.13-3.87h4.7q0,3.77,4.5,3.77a4.38,4.38,0,0,0,2.61-.68A2.21,2.21,0,0,0,377.38,464.93Z"/><path class="cls-8" d="M399.67,464.76,401.88,454h4.36l-4.31,16.91h-3.78l-3.2-10.64-3.2,10.64H388L383.67,454H388l2.2,10.75L393.32,454h3.27Z"/><path class="cls-8" d="M408.45,449.62a2.23,2.23,0,0,1,.68-1.67,2.93,2.93,0,0,1,3.7,0,2.39,2.39,0,0,1,0,3.36,2.9,2.9,0,0,1-3.67,0A2.22,2.22,0,0,1,408.45,449.62Zm4.8,21.28h-4.53V454h4.53Z"/><path class="cls-8" d="M422.37,449.84V454h2.89v3.31h-2.89v8.44a2,2,0,0,0,.36,1.34,1.8,1.8,0,0,0,1.38.41,7.09,7.09,0,0,0,1.33-.11v3.42a9.28,9.28,0,0,1-2.73.41q-4.75,0-4.84-4.8V457.3h-2.47V454h2.47v-4.16Z"/><path class="cls-8" d="M434.81,467.57a3,3,0,0,0,2-.69,2.41,2.41,0,0,0,.81-1.83h4.23a5.8,5.8,0,0,1-.94,3.15,6.19,6.19,0,0,1-2.52,2.22,7.9,7.9,0,0,1-3.54.79,7.34,7.34,0,0,1-5.72-2.3,9.11,9.11,0,0,1-2.09-6.37v-.3a9,9,0,0,1,2.08-6.23,7.26,7.26,0,0,1,5.7-2.33,7.11,7.11,0,0,1,5.09,1.8,6.39,6.39,0,0,1,1.95,4.8h-4.23a3.11,3.11,0,0,0-.81-2.14,3,3,0,0,0-4.45.33,6.66,6.66,0,0,0-.8,3.73v.47a6.75,6.75,0,0,0,.8,3.76A2.75,2.75,0,0,0,434.81,467.57Z"/><path class="cls-8" d="M448.87,455.84a5.64,5.64,0,0,1,4.52-2.16q5.5,0,5.58,6.39V470.9h-4.52V460.2a3.15,3.15,0,0,0-.62-2.15,2.68,2.68,0,0,0-2.08-.7,3.08,3.08,0,0,0-2.87,1.53v12h-4.52v-24h4.52Z"/><path class="cls-8" d="M489.32,460a13.74,13.74,0,0,1-1.19,5.89,8.94,8.94,0,0,1-3.4,3.91,10,10,0,0,1-10.12,0,9,9,0,0,1-3.44-3.88,13.33,13.33,0,0,1-1.23-5.8V459a13.66,13.66,0,0,1,1.21-5.91,9,9,0,0,1,3.42-3.92,10,10,0,0,1,10.11,0,9,9,0,0,1,3.42,3.92,13.63,13.63,0,0,1,1.21,5.9Zm-4.75-1a9.58,9.58,0,0,0-1.28-5.44,4.53,4.53,0,0,0-7.3,0,9.46,9.46,0,0,0-1.3,5.38V460a9.69,9.69,0,0,0,1.28,5.41,4.49,4.49,0,0,0,7.31.07,9.64,9.64,0,0,0,1.28-5.4Z"/><path class="cls-8" d="M511.23,470.9h-4.69l-9.12-15v15h-4.69V448.15h4.69l9.14,15v-15h4.67Z"/><path class="cls-7" d="M473.35,312a49.39,49.39,0,1,1-26.13,41.33h0l50.5,3h0L473.35,312"/><path class="cls-7" d="M267.72,315.74a7.72,7.72,0,0,1-2.6,5.54,9.13,9.13,0,0,1-6.18,2,8.2,8.2,0,0,1-6.59-2.82,11.57,11.57,0,0,1-2.4-7.75V311.4a13.06,13.06,0,0,1,1.11-5.54,8.3,8.3,0,0,1,3.17-3.67,9.89,9.89,0,0,1,10.86.74,8.29,8.29,0,0,1,2.67,5.67h-4.49a4.55,4.55,0,0,0-1.17-3.06,4.35,4.35,0,0,0-3.08-1,3.82,3.82,0,0,0-3.36,1.61,9,9,0,0,0-1.15,5v1.65a9.65,9.65,0,0,0,1.07,5.17,3.75,3.75,0,0,0,3.38,1.63,4.43,4.43,0,0,0,3.11-1,4.29,4.29,0,0,0,1.17-2.94Z"/><path class="cls-7" d="M279.49,310.86a11.74,11.74,0,0,0-1.56-.12q-2.46,0-3.22,1.66V323h-4.33V306.8h4.09l.12,1.93a4,4,0,0,1,3.61-2.23,4.53,4.53,0,0,1,1.35.19Z"/><path class="cls-7" d="M288.74,323.3a8,8,0,0,1-5.8-2.19,7.77,7.77,0,0,1-2.24-5.82v-.42a9.78,9.78,0,0,1,.94-4.36,6.92,6.92,0,0,1,2.67-3,7.51,7.51,0,0,1,3.95-1,6.72,6.72,0,0,1,5.23,2.1,8.52,8.52,0,0,1,1.91,5.94v1.77H285.08a4,4,0,0,0,1.26,2.54,3.83,3.83,0,0,0,2.67,1,4.67,4.67,0,0,0,3.91-1.81l2.13,2.38a6.5,6.5,0,0,1-2.64,2.15A8.65,8.65,0,0,1,288.74,323.3ZM288.24,310a2.7,2.7,0,0,0-2.09.87,4.51,4.51,0,0,0-1,2.5h6V313a3.22,3.22,0,0,0-.78-2.23A2.79,2.79,0,0,0,288.24,310Z"/><path class="cls-7" d="M310.67,302.82v4h2.77V310h-2.77v8.08a1.92,1.92,0,0,0,.34,1.29,1.73,1.73,0,0,0,1.32.39,6.87,6.87,0,0,0,1.27-.11v3.28a8.93,8.93,0,0,1-2.62.39q-4.55,0-4.64-4.6V310H304V306.8h2.37v-4Z"/><path class="cls-7" d="M321.9,316.88l3-10.08h4.64L323,325.51l-.36.85a4.94,4.94,0,0,1-4.79,3.17,6.81,6.81,0,0,1-1.92-.28V326l.66,0a3.56,3.56,0,0,0,1.83-.37,2.46,2.46,0,0,0,1-1.24l.51-1.33-5.67-16.24h4.66Z"/><path class="cls-7" d="M340.34,310.86a11.74,11.74,0,0,0-1.56-.12q-2.46,0-3.22,1.66V323h-4.33V306.8h4.09l.12,1.93a4,4,0,0,1,3.61-2.23,4.53,4.53,0,0,1,1.35.19Z"/><path class="cls-7" d="M341.21,314.75a9.6,9.6,0,0,1,.93-4.3,6.8,6.8,0,0,1,2.67-2.92,7.8,7.8,0,0,1,4-1,7.38,7.38,0,0,1,5.35,2,8.05,8.05,0,0,1,2.31,5.45l0,1.11a8.46,8.46,0,0,1-2.08,6,8.07,8.07,0,0,1-11.18,0,8.62,8.62,0,0,1-2.09-6.11Zm4.33.31a6.06,6.06,0,0,0,.87,3.53,3.12,3.12,0,0,0,4.94,0,6.62,6.62,0,0,0,.88-3.86,6,6,0,0,0-.88-3.51,2.87,2.87,0,0,0-2.48-1.24,2.83,2.83,0,0,0-2.46,1.24A6.75,6.75,0,0,0,345.54,315.06Z"/><path class="cls-7" d="M368,318.52a1.39,1.39,0,0,0-.79-1.25,8.93,8.93,0,0,0-2.52-.82q-5.78-1.21-5.78-4.91a4.45,4.45,0,0,1,1.79-3.6,7.22,7.22,0,0,1,4.68-1.44,7.77,7.77,0,0,1,4.93,1.45,4.58,4.58,0,0,1,1.85,3.77h-4.33a2.09,2.09,0,0,0-.6-1.53,2.53,2.53,0,0,0-1.87-.61,2.58,2.58,0,0,0-1.69.49,1.56,1.56,0,0,0-.6,1.26,1.33,1.33,0,0,0,.68,1.16,7,7,0,0,0,2.3.76,18.77,18.77,0,0,1,2.72.73q3.43,1.26,3.43,4.36a4.23,4.23,0,0,1-1.9,3.59,8.2,8.2,0,0,1-4.91,1.37,8.58,8.58,0,0,1-3.62-.73,6.07,6.07,0,0,1-2.48-2,4.63,4.63,0,0,1-.9-2.73h4.1a2.26,2.26,0,0,0,.85,1.77,3.38,3.38,0,0,0,2.13.61,3.13,3.13,0,0,0,1.88-.47A1.47,1.47,0,0,0,368,318.52Z"/><path class="cls-7" d="M375,302.61a2.13,2.13,0,0,1,.65-1.6,2.81,2.81,0,0,1,3.54,0,2.29,2.29,0,0,1,0,3.22,2.78,2.78,0,0,1-3.52,0A2.12,2.12,0,0,1,375,302.61Zm4.6,20.39h-4.34V306.8h4.34Z"/><path class="cls-7" d="M387.1,306.8l.13,1.87a5.65,5.65,0,0,1,4.66-2.17,4.7,4.7,0,0,1,3.83,1.51,7.06,7.06,0,0,1,1.29,4.52V323h-4.33V312.64a2.81,2.81,0,0,0-.6-2,2.68,2.68,0,0,0-2-.62,3,3,0,0,0-2.74,1.56V323H383V306.8Z"/><path class="cls-7" d="M407.74,323.3a8,8,0,0,1-5.8-2.19,7.77,7.77,0,0,1-2.24-5.82v-.42a9.78,9.78,0,0,1,.94-4.36,6.92,6.92,0,0,1,2.67-3,7.51,7.51,0,0,1,3.95-1,6.72,6.72,0,0,1,5.23,2.1,8.52,8.52,0,0,1,1.91,5.94v1.77H404.09a4,4,0,0,0,1.26,2.54,3.83,3.83,0,0,0,2.67,1,4.67,4.67,0,0,0,3.91-1.81l2.13,2.38a6.5,6.5,0,0,1-2.64,2.15A8.65,8.65,0,0,1,407.74,323.3ZM407.25,310a2.7,2.7,0,0,0-2.09.87,4.51,4.51,0,0,0-1,2.5h6V313a3.22,3.22,0,0,0-.78-2.23A2.79,2.79,0,0,0,407.25,310Z"/><path class="cls-7" d="M259.42,347.65a11.74,11.74,0,0,0-1.56-.12q-2.46,0-3.22,1.66v10.6h-4.33v-16.2h4.09l.12,1.93a4,4,0,0,1,3.61-2.23,4.53,4.53,0,0,1,1.35.19Z"/><path class="cls-7" d="M268.68,360.09a8,8,0,0,1-5.8-2.19,7.77,7.77,0,0,1-2.24-5.82v-.42a9.78,9.78,0,0,1,.94-4.36,6.92,6.92,0,0,1,2.67-3,7.51,7.51,0,0,1,3.95-1,6.72,6.72,0,0,1,5.23,2.1,8.52,8.52,0,0,1,1.91,5.94v1.77H265a4,4,0,0,0,1.26,2.54,3.83,3.83,0,0,0,2.67,1,4.67,4.67,0,0,0,3.91-1.81l2.13,2.38a6.5,6.5,0,0,1-2.64,2.15A8.65,8.65,0,0,1,268.68,360.09Zm-.49-13.31a2.7,2.7,0,0,0-2.09.87,4.51,4.51,0,0,0-1,2.5h6v-.35a3.22,3.22,0,0,0-.78-2.23A2.79,2.79,0,0,0,268.18,346.78Z"/><path class="cls-7" d="M284.53,356.6a2.84,2.84,0,0,0,1.95-.66,2.31,2.31,0,0,0,.78-1.75h4.06a5.55,5.55,0,0,1-.9,3,5.93,5.93,0,0,1-2.42,2.13,7.57,7.57,0,0,1-3.39.76,7,7,0,0,1-5.48-2.21,8.74,8.74,0,0,1-2-6.1v-.28a8.64,8.64,0,0,1,2-6,7,7,0,0,1,5.46-2.23,6.81,6.81,0,0,1,4.87,1.73,6.13,6.13,0,0,1,1.86,4.6h-4.06a3,3,0,0,0-.78-2.05,2.89,2.89,0,0,0-4.26.31,6.38,6.38,0,0,0-.77,3.58v.45a6.47,6.47,0,0,0,.76,3.6A2.64,2.64,0,0,0,284.53,356.6Z"/><path class="cls-7" d="M293.11,351.54a9.6,9.6,0,0,1,.93-4.3,6.8,6.8,0,0,1,2.67-2.92,7.8,7.8,0,0,1,4-1,7.38,7.38,0,0,1,5.35,2,8.05,8.05,0,0,1,2.31,5.45l0,1.11a8.46,8.46,0,0,1-2.08,6,8.07,8.07,0,0,1-11.18,0,8.62,8.62,0,0,1-2.09-6.11Zm4.33.31a6.06,6.06,0,0,0,.87,3.53,3.12,3.12,0,0,0,4.94,0,6.62,6.62,0,0,0,.88-3.86,6,6,0,0,0-.88-3.51,2.87,2.87,0,0,0-2.48-1.24A2.83,2.83,0,0,0,298.3,348,6.75,6.75,0,0,0,297.44,351.85Z"/><path class="cls-7" d="M315.18,343.59l.13,1.81a5.69,5.69,0,0,1,4.66-2.11,4.32,4.32,0,0,1,4.3,2.47,5.56,5.56,0,0,1,4.87-2.47,4.83,4.83,0,0,1,3.92,1.53,7.06,7.06,0,0,1,1.29,4.62v10.35H330V349.46a3.08,3.08,0,0,0-.54-2,2.39,2.39,0,0,0-1.9-.64,2.7,2.7,0,0,0-2.69,1.86v11.12h-4.33V349.48a3,3,0,0,0-.55-2,2.42,2.42,0,0,0-1.89-.63,2.81,2.81,0,0,0-2.67,1.53v11.45h-4.33v-16.2Z"/><path class="cls-7" d="M352.26,351.84a9.81,9.81,0,0,1-1.66,6.07,5.5,5.5,0,0,1-4.64,2.18,5.06,5.06,0,0,1-4.21-2l-.19,1.72h-3.89v-23H342V345a4.93,4.93,0,0,1,3.94-1.75,5.55,5.55,0,0,1,4.65,2.18,9.82,9.82,0,0,1,1.68,6.13Zm-4.33-.31a6.45,6.45,0,0,0-.78-3.58,2.63,2.63,0,0,0-2.32-1.13A2.85,2.85,0,0,0,342,348.5v6.39a2.89,2.89,0,0,0,2.88,1.71,2.67,2.67,0,0,0,2.75-2.07A10.65,10.65,0,0,0,347.93,351.53Z"/><path class="cls-7" d="M354.89,339.4a2.13,2.13,0,0,1,.65-1.6,2.81,2.81,0,0,1,3.54,0,2.29,2.29,0,0,1,0,3.22,2.78,2.78,0,0,1-3.52,0A2.12,2.12,0,0,1,354.89,339.4Zm4.6,20.39h-4.34v-16.2h4.34Z"/><path class="cls-7" d="M367,343.59l.13,1.87a5.65,5.65,0,0,1,4.66-2.17,4.7,4.7,0,0,1,3.83,1.51,7.06,7.06,0,0,1,1.29,4.52v10.46h-4.33V349.43a2.81,2.81,0,0,0-.6-2,2.68,2.68,0,0,0-2-.62,3,3,0,0,0-2.74,1.56v11.42H363v-16.2Z"/><path class="cls-7" d="M389.61,359.79a4.79,4.79,0,0,1-.43-1.45,5.24,5.24,0,0,1-4.09,1.75,5.75,5.75,0,0,1-3.95-1.38,4.43,4.43,0,0,1-1.56-3.47,4.58,4.58,0,0,1,1.91-4A9.43,9.43,0,0,1,387,349.9h2V349a2.67,2.67,0,0,0-.58-1.8,2.27,2.27,0,0,0-1.82-.67,2.58,2.58,0,0,0-1.71.52,1.78,1.78,0,0,0-.62,1.44h-4.33a4.35,4.35,0,0,1,.87-2.61,5.74,5.74,0,0,1,2.46-1.88,8.94,8.94,0,0,1,3.56-.68,7.07,7.07,0,0,1,4.75,1.5,5.26,5.26,0,0,1,1.76,4.23v7a7.74,7.74,0,0,0,.64,3.49v.25Zm-3.58-3a3.72,3.72,0,0,0,1.77-.43,2.8,2.8,0,0,0,1.2-1.14v-2.79h-1.62q-3.25,0-3.46,2.25v.25a1.73,1.73,0,0,0,.57,1.33A2.21,2.21,0,0,0,386,356.78Z"/><path class="cls-7" d="M405.44,355.32a1.39,1.39,0,0,0-.79-1.25,8.93,8.93,0,0,0-2.52-.82q-5.78-1.21-5.78-4.91a4.45,4.45,0,0,1,1.79-3.6,7.22,7.22,0,0,1,4.68-1.44,7.77,7.77,0,0,1,4.93,1.45,4.58,4.58,0,0,1,1.85,3.77h-4.33a2.09,2.09,0,0,0-.6-1.53,2.53,2.53,0,0,0-1.87-.61,2.58,2.58,0,0,0-1.69.49,1.56,1.56,0,0,0-.6,1.26,1.33,1.33,0,0,0,.68,1.16,7,7,0,0,0,2.3.76,18.77,18.77,0,0,1,2.72.73q3.43,1.26,3.43,4.36a4.23,4.23,0,0,1-1.9,3.59,8.2,8.2,0,0,1-4.91,1.37,8.58,8.58,0,0,1-3.62-.73,6.07,6.07,0,0,1-2.48-2,4.63,4.63,0,0,1-.9-2.73h4.1a2.26,2.26,0,0,0,.85,1.77,3.38,3.38,0,0,0,2.13.61,3.13,3.13,0,0,0,1.88-.47A1.47,1.47,0,0,0,405.44,355.32Z"/><path class="cls-7" d="M419.88,360.09a8,8,0,0,1-5.8-2.19,7.77,7.77,0,0,1-2.24-5.82v-.42a9.78,9.78,0,0,1,.94-4.36,6.92,6.92,0,0,1,2.67-3,7.51,7.51,0,0,1,3.95-1,6.72,6.72,0,0,1,5.23,2.1,8.52,8.52,0,0,1,1.91,5.94v1.77H416.23a4,4,0,0,0,1.26,2.54,3.83,3.83,0,0,0,2.67,1,4.67,4.67,0,0,0,3.91-1.81l2.13,2.38a6.5,6.5,0,0,1-2.64,2.15A8.65,8.65,0,0,1,419.88,360.09Zm-.49-13.31a2.7,2.7,0,0,0-2.09.87,4.51,4.51,0,0,0-1,2.5h6v-.35a3.22,3.22,0,0,0-.78-2.23A2.79,2.79,0,0,0,419.39,346.78Z"/><path class="cls-7" d="M257.78,396.88a8,8,0,0,1-5.8-2.19,7.77,7.77,0,0,1-2.24-5.82v-.42a9.78,9.78,0,0,1,.94-4.36,6.92,6.92,0,0,1,2.67-3,7.51,7.51,0,0,1,3.95-1,6.72,6.72,0,0,1,5.23,2.1,8.52,8.52,0,0,1,1.91,5.94v1.77H254.13a4,4,0,0,0,1.26,2.54,3.83,3.83,0,0,0,2.67,1,4.67,4.67,0,0,0,3.91-1.81L264.1,394a6.5,6.5,0,0,1-2.64,2.15A8.65,8.65,0,0,1,257.78,396.88Zm-.49-13.31a2.7,2.7,0,0,0-2.09.87,4.51,4.51,0,0,0-1,2.5h6v-.35a3.22,3.22,0,0,0-.78-2.23A2.79,2.79,0,0,0,257.28,383.58Z"/><path class="cls-7" d="M273.06,385.22l2.72-4.84h4.63l-4.61,7.93,4.81,8.26H276l-2.89-5.09-2.87,5.09h-4.66l4.81-8.26-4.6-7.93h4.64Z"/><path class="cls-7" d="M288.93,393.4a2.84,2.84,0,0,0,1.95-.66,2.31,2.31,0,0,0,.78-1.75h4.06a5.55,5.55,0,0,1-.9,3,5.93,5.93,0,0,1-2.42,2.13,7.57,7.57,0,0,1-3.39.76,7,7,0,0,1-5.48-2.21,8.74,8.74,0,0,1-2-6.1v-.28a8.64,8.64,0,0,1,2-6,7,7,0,0,1,5.46-2.23,6.81,6.81,0,0,1,4.87,1.73,6.13,6.13,0,0,1,1.86,4.6h-4.06a3,3,0,0,0-.78-2.05,2.89,2.89,0,0,0-4.26.31,6.38,6.38,0,0,0-.77,3.58v.45a6.47,6.47,0,0,0,.76,3.6A2.64,2.64,0,0,0,288.93,393.4Z"/><path class="cls-7" d="M298.15,376.2a2.13,2.13,0,0,1,.65-1.6,2.81,2.81,0,0,1,3.54,0,2.29,2.29,0,0,1,0,3.22,2.78,2.78,0,0,1-3.52,0A2.12,2.12,0,0,1,298.15,376.2Zm4.6,20.39h-4.34v-16.2h4.34Z"/><path class="cls-7" d="M315.09,392.11a1.39,1.39,0,0,0-.79-1.25,8.93,8.93,0,0,0-2.52-.82q-5.78-1.21-5.78-4.91a4.45,4.45,0,0,1,1.79-3.6,7.22,7.22,0,0,1,4.68-1.44,7.77,7.77,0,0,1,4.93,1.45,4.58,4.58,0,0,1,1.85,3.77h-4.33a2.09,2.09,0,0,0-.6-1.53,2.53,2.53,0,0,0-1.87-.61,2.58,2.58,0,0,0-1.69.49,1.56,1.56,0,0,0-.6,1.26,1.33,1.33,0,0,0,.68,1.16,7,7,0,0,0,2.3.76,18.77,18.77,0,0,1,2.72.73q3.43,1.26,3.43,4.36a4.23,4.23,0,0,1-1.9,3.59,8.2,8.2,0,0,1-4.91,1.37,8.58,8.58,0,0,1-3.62-.73,6.07,6.07,0,0,1-2.48-2,4.63,4.63,0,0,1-.9-2.73h4.1a2.26,2.26,0,0,0,.85,1.77,3.38,3.38,0,0,0,2.13.61,3.13,3.13,0,0,0,1.88-.47A1.47,1.47,0,0,0,315.09,392.11Z"/><path class="cls-7" d="M322,376.2a2.13,2.13,0,0,1,.65-1.6,2.81,2.81,0,0,1,3.54,0,2.29,2.29,0,0,1,0,3.22,2.78,2.78,0,0,1-3.52,0A2.12,2.12,0,0,1,322,376.2Zm4.6,20.39H322.3v-16.2h4.34Z"/><path class="cls-7" d="M329.53,388.34a9.6,9.6,0,0,1,.93-4.3,6.8,6.8,0,0,1,2.67-2.92,7.8,7.8,0,0,1,4-1,7.38,7.38,0,0,1,5.35,2,8.05,8.05,0,0,1,2.31,5.45l0,1.11a8.46,8.46,0,0,1-2.08,6,8.07,8.07,0,0,1-11.18,0,8.62,8.62,0,0,1-2.09-6.11Zm4.33.31a6.06,6.06,0,0,0,.87,3.53,3.12,3.12,0,0,0,4.94,0,6.62,6.62,0,0,0,.88-3.86,6,6,0,0,0-.88-3.51,2.87,2.87,0,0,0-2.48-1.24,2.83,2.83,0,0,0-2.46,1.24A6.75,6.75,0,0,0,333.86,388.64Z"/><path class="cls-7" d="M351.53,380.39l.13,1.87a5.65,5.65,0,0,1,4.66-2.17,4.7,4.7,0,0,1,3.83,1.51,7.06,7.06,0,0,1,1.29,4.52v10.46h-4.33V386.23a2.81,2.81,0,0,0-.6-2,2.68,2.68,0,0,0-2-.62,3,3,0,0,0-2.74,1.56v11.42h-4.33v-16.2Z"/></svg>