<?xml version="1.0" encoding="UTF-8"?>
<!-- Created with Inkscape (http://www.inkscape.org/) -->
<svg width="282.26mm" height="455.45mm" version="1.1" viewBox="0 0 282.26 455.45" xmlns="http://www.w3.org/2000/svg" xmlns:cc="http://creativecommons.org/ns#" xmlns:dc="http://purl.org/dc/elements/1.1/" xmlns:rdf="http://www.w3.org/1999/02/22-rdf-syntax-ns#">
 <defs>
  <marker id="marker2062" overflow="visible" orient="auto">
   <path transform="scale(-.2)" d="m5.77 0-8.65 5v-10z" fill-rule="evenodd" stroke="#000" stroke-width="1pt"/>
  </marker>
  <marker id="TriangleInS" overflow="visible" orient="auto">
   <path transform="scale(-.2)" d="m5.77 0-8.65 5v-10z" fill-rule="evenodd" stroke="#000" stroke-width="1pt"/>
  </marker>
  <marker id="TriangleInS-5" overflow="visible" orient="auto">
   <path transform="scale(-.2)" d="m5.77 0-8.65 5v-10z" fill-rule="evenodd" stroke="#000" stroke-width="1pt"/>
  </marker>
  <marker id="TriangleInS-5-9-5" overflow="visible" orient="auto">
   <path transform="scale(-.2)" d="m5.77 0-8.65 5v-10z" fill-rule="evenodd" stroke="#000" stroke-width="1pt"/>
  </marker>
  <marker id="TriangleInS-44" overflow="visible" orient="auto">
   <path transform="scale(-.2)" d="m5.77 0-8.65 5v-10z" fill-rule="evenodd" stroke="#000" stroke-width="1pt"/>
  </marker>
 </defs>
 <metadata>
  <rdf:RDF>
   <cc:Work rdf:about="">
    <dc:format>image/svg+xml</dc:format>
    <dc:type rdf:resource="http://purl.org/dc/dcmitype/StillImage"/>
    <dc:title/>
   </cc:Work>
  </rdf:RDF>
 </metadata>
 <g transform="translate(-22.765 -43.659)" fill="none">
  <path d="m82.096 76.904h40.67" stroke="#a1e5bc" stroke-width="2.5"/>
  <g stroke="#000" stroke-width="2.5">
   <path d="m71.621 76.904h11.037"/>
   <path d="m122.77 76.904h11.037"/>
   <path d="m72.763 69.855v14.098"/>
   <path d="m82.664 69.855v14.098"/>
   <path d="m132.63 69.855v14.098"/>
   <path d="m123.06 69.855v14.098"/>
   <path d="m182.32 59.96h62.626c8.3256 0 15.028 6.7026 15.028 15.028 0 8.3256-6.7026 15.028-15.028 15.028h-62.626c-8.3256 0-15.028-6.7026-15.028-15.028 0-8.3256 6.7026-15.028 15.028-15.028z" stroke-linecap="round" stroke-linejoin="round"/>
  </g>
  <path d="m202.35 59.917h23.737" stroke="#ffb0cf" stroke-width="2.8"/>
  <g stroke="#000" stroke-width="2.5">
   <path d="m194.13 52.264v14.098"/>
   <path d="m202.92 52.264v14.098"/>
   <path d="m234.14 52.531v14.098"/>
   <path d="m225.88 52.531v14.098"/>
  </g>
 </g>
 <g transform="translate(-22.765 -43.659)">
  <g aria-label="e">
   <path d="m196.09 44.981h-2.6613v1.2735h2.147v1.2572h-2.147v1.2653h2.6613v1.2572h-3.9185v-6.3104h3.9185z" stroke-width=".20409"/>
  </g>
  <g aria-label="x">
   <path d="m202.94 47.977-1.3143 2.0572h-1.4939l2.0735-3.2409-1.9184-3.0695h1.4858l1.1837 1.8939 1.2082-1.8939h1.4939l-1.9674 3.0776 2.0246 3.2328h-1.4858z" stroke-width=".20409"/>
  </g>
  <g aria-label="s">
   <path d="m225.88 50.035q-0.38369 0-0.72656-0.13878-0.34286-0.14694-0.6041-0.41634-0.26939-0.2694-0.41634-0.61226-0.13878-0.35103-0.13878-0.73472h1.2409q0 0.2694 0.18776 0.46532 0.19592 0.18776 0.45716 0.18776 0.26939 0 0.45715-0.18776 0.19593-0.19592 0.19593-0.46532 0-0.16327-0.0327-0.21225-0.0245-0.05714-0.0653-0.0898-0.10612-0.0898-0.31837-0.18776-0.20409-0.09796-0.44083-0.20409-0.70206-0.22042-1.1021-0.57961-0.28572-0.25307-0.43266-0.57961-0.14695-0.32654-0.14695-0.71023t0.13878-0.72655q0.14695-0.35103 0.41634-0.62043 0.26124-0.2694 0.6041-0.41634 0.34287-0.14694 0.72656-0.14694 0.38368 0 0.72655 0.14694t0.61226 0.41634q0.26123 0.2694 0.40818 0.62043 0.14694 0.34287 0.14694 0.72655h-1.2408q0-0.2694-0.19593-0.45716-0.18776-0.19592-0.45715-0.19592-0.26124 0-0.45716 0.19592-0.18776 0.18776-0.18776 0.45716 0 0.04898 8e-3 0.13062 0.0163 0.07347 0.0898 0.16327 0.0816 0.0898 0.24491 0.18776 0.17143 0.09796 0.48164 0.19592l0.0327 0.01633 0.0245 0.0082q0.35919 0.14694 0.64492 0.28572 0.28572 0.13878 0.49797 0.3347 0.5143 0.46532 0.5143 1.2409 0 0.38368-0.14694 0.73472-0.14695 0.34287-0.40818 0.61226-0.26939 0.2694-0.61226 0.41634-0.34287 0.13878-0.72655 0.13878z" stroke-width=".20409"/>
  </g>
  <g aria-label="p">
   <path d="m234.23 43.732q0.39185 0 0.73472 0.15511 0.34286 0.14694 0.59593 0.40818 0.26124 0.25307 0.40818 0.59594 0.15511 0.34287 0.15511 0.73472t-0.15511 0.74288q-0.14694 0.34287-0.40818 0.6041-0.25307 0.25307-0.59593 0.40001-0.34287 0.14694-0.73472 0.14694h-0.82451v2.5144h-1.2572v-6.3022h0.62859zm-0.15511 2.5552q0.2694 0 0.46532-0.18776 0.19593-0.19592 0.19593-0.47348t-0.19593-0.46532q-0.19592-0.19592-0.46532-0.19592h-0.6694v1.3225z" stroke-width=".20409"/>
  </g>
  <g stroke-width=".12202" aria-label="rfp">
   <path d="m212.16 53.664q0 0.31237-0.15131 0.57106-0.1513 0.2538-0.40023 0.40023l0.55154 1.6595v0.0098h-0.7907l-0.49784-1.5082h-0.33678v1.5082h-0.75164v-3.7729h1.2446q0.23428 0 0.43927 0.09274 0.205 0.08786 0.3563 0.24404 0.15619 0.15131 0.24404 0.3563 0.0927 0.205 0.0927 0.43927zm-1.6253 0.40023h0.40023q0.16107 0 0.27821-0.11714t0.11714-0.28309-0.11714-0.27821q-0.11714-0.11714-0.27821-0.11714h-0.40023z"/>
   <path d="m215.54 53.284h-1.5911v0.76141h1.2836v0.75165h-1.2836v1.5082h-0.75165v-3.7729h2.3428z"/>
   <path d="m217.73 52.532q0.23428 0 0.43928 0.09274 0.20499 0.08786 0.3563 0.24404 0.15618 0.15131 0.24404 0.3563 0.0927 0.205 0.0927 0.43927 0 0.23428-0.0927 0.44416-0.0879 0.205-0.24404 0.36118-0.15131 0.15131-0.3563 0.23916-0.205 0.08786-0.43928 0.08786h-0.49296v1.5033h-0.75165v-3.768h0.37582zm-0.0927 1.5277q0.16106 0 0.2782-0.11226 0.11714-0.11714 0.11714-0.28309t-0.11714-0.27821q-0.11714-0.11714-0.2782-0.11714h-0.40023v0.79069z"/>
  </g>
  <g aria-label="e">
   <path d="m75.055 61.715h-2.6613v1.2735h2.147v1.2572h-2.147v1.2653h2.6613v1.2572h-3.9185v-6.3104h3.9185z" stroke-width=".20409"/>
  </g>
  <g aria-label="x">
   <path d="m82.963 64.711-1.3143 2.0572h-1.4939l2.0735-3.2409-1.9184-3.0695h1.4858l1.1837 1.8939 1.2082-1.8939h1.4939l-1.9674 3.0776 2.0246 3.2328h-1.4858z" stroke-width=".20409"/>
  </g>
  <g aria-label="s">
   <path d="m123.36 66.769q-0.38368 0-0.72655-0.13878-0.34287-0.14694-0.6041-0.41634-0.2694-0.2694-0.41634-0.61226-0.13878-0.35103-0.13878-0.73472h1.2408q0 0.2694 0.18777 0.46532 0.19592 0.18776 0.45715 0.18776 0.2694 0 0.45716-0.18776 0.19592-0.19592 0.19592-0.46532 0-0.16327-0.0326-0.21225-0.0245-0.05715-0.0653-0.0898-0.10613-0.0898-0.31838-0.18776-0.20408-0.09796-0.44083-0.20409-0.70206-0.22042-1.1021-0.57961-0.28572-0.25307-0.43267-0.57961-0.14694-0.32654-0.14694-0.71022t0.13878-0.72655q0.14694-0.35103 0.41634-0.62043 0.26123-0.2694 0.6041-0.41634t0.72655-0.14694q0.38369 0 0.72655 0.14694 0.34287 0.14694 0.61227 0.41634 0.26123 0.2694 0.40817 0.62043 0.14695 0.34287 0.14695 0.72655h-1.2409q0-0.2694-0.19592-0.45716-0.18776-0.19592-0.45716-0.19592-0.26123 0-0.45715 0.19592-0.18777 0.18776-0.18777 0.45716 0 0.04898 8e-3 0.13062 0.0163 0.07347 0.0898 0.16327 0.0816 0.0898 0.2449 0.18776 0.17144 0.09796 0.48165 0.19592l0.0327 0.01633 0.0245 0.0082q0.3592 0.14694 0.64492 0.28572t0.49798 0.3347q0.5143 0.46532 0.5143 1.2409 0 0.38368-0.14695 0.73472-0.14694 0.34287-0.40817 0.61226-0.2694 0.2694-0.61227 0.41634-0.34286 0.13878-0.72655 0.13878z" stroke-width=".20409"/>
  </g>
  <g aria-label="p">
   <path d="m132.78 60.466q0.39185 0 0.73472 0.15511 0.34287 0.14694 0.59593 0.40818 0.26124 0.25307 0.40818 0.59594 0.15511 0.34287 0.15511 0.73472t-0.15511 0.74288q-0.14694 0.34287-0.40818 0.6041-0.25306 0.25307-0.59593 0.40001t-0.73472 0.14694h-0.82451v2.5144h-1.2572v-6.3022h0.62859zm-0.15511 2.5552q0.2694 0 0.46533-0.18776 0.19592-0.19592 0.19592-0.47348t-0.19592-0.46532q-0.19593-0.19592-0.46533-0.19592h-0.6694v1.3225z" stroke-width=".20409"/>
  </g>
 </g>
 <path d="m80.685 95.801v-43.732" fill="none" marker-start="url(#TriangleInS)" stroke="#000" stroke-width="2.5"/>
 <g transform="matrix(1.7504 0 0 1.7504 -104.68 -135.06)" stroke-width=".12202" aria-label="eco-ri, spe-I">
  <path d="m111.5 115.51h-1.5912v0.76141h1.2837v0.75165h-1.2837v0.75652h1.5912v0.75165h-2.3428v-3.7729h2.3428z" stroke-width=".12202"/>
  <path d="m114.92 116.49-0.54099 0.2979q-0.15253-0.15967-0.30267-0.22163-0.14776-0.062-0.34795-0.062-0.36463 0-0.59104 0.21926-0.22402 0.21687-0.22402 0.55767 0 0.33127 0.21688 0.54099 0.21687 0.20972 0.56958 0.20972 0.43613 0 0.67922-0.2979l0.51239 0.35033q-0.41706 0.54099-1.1773 0.54099-0.68398 0-1.0724-0.40514-0.38608-0.40515-0.38608-0.94852 0-0.37655 0.18827-0.69352t0.52431-0.49809q0.33841-0.18112 0.75548-0.18112 0.38608 0 0.69351 0.1549 0.30744 0.15253 0.50286 0.43613z"/>
  <path d="m116.72 115.89q0.36701 0 0.68875 0.1835 0.32411 0.18351 0.50524 0.4981 0.18112 0.31458 0.18112 0.67921 0 0.36702-0.18351 0.68637-0.18112 0.31935-0.49571 0.50047-0.31458 0.17874-0.69351 0.17874-0.55767 0-0.95329-0.39561-0.39323-0.398-0.39323-0.9652 0-0.60772 0.44566-1.0129 0.39085-0.35271 0.89848-0.35271zm0.01 0.61248q-0.30267 0-0.50524 0.21211-0.20019 0.20972-0.20019 0.5386 0 0.33842 0.1978 0.54814 0.20019 0.20973 0.50525 0.20973 0.30505 0 0.50762-0.21211t0.20257-0.54576-0.20019-0.54099q-0.1978-0.20972-0.50762-0.20972z"/>
  <g stroke-width=".12202">
   <path d="m121.19 116.63v0.57594h-2.2305v-0.57594z"/>
   <path d="m124.74 115.89q0 0.31238-0.15131 0.57106-0.1513 0.2538-0.40022 0.40023l0.55153 1.6595v0.01h-0.79069l-0.49785-1.5082h-0.33678v1.5082h-0.75164v-3.7729h1.2446q0.23428 0 0.43927 0.0927 0.205 0.0879 0.3563 0.24404 0.15619 0.15131 0.24404 0.3563 0.0927 0.20499 0.0927 0.43927zm-1.6253 0.40023h0.40023q0.16107 0 0.27821-0.11714t0.11714-0.28309q0-0.16594-0.11714-0.2782-0.11714-0.11714-0.27821-0.11714h-0.40023z"/>
   <path d="m126.51 118.54h-0.75164v-3.7729h0.75164z"/>
   <path d="m127.35 118.9 0.0927-0.39535q-0.0244-0.01-0.0439-0.0244-0.0147-0.0146-0.0342-0.0293-0.0879-0.0927-0.0879-0.21964 0-0.1269 0.0879-0.21476 0.0927-0.0927 0.21964-0.0927 0.1269 0 0.21964 0.0927 0.0879 0.0879 0.0879 0.21476 0 0.1269-0.0879 0.21964z"/>
   <path d="m132.01 118.55q-0.2294 0-0.43439-0.083-0.205-0.0879-0.36118-0.24892-0.16107-0.16107-0.24893-0.36607-0.083-0.20987-0.083-0.43927h0.74188q0 0.16107 0.11226 0.27821 0.11714 0.11226 0.27333 0.11226 0.16107 0 0.27333-0.11226 0.11714-0.11714 0.11714-0.27821 0-0.0976-0.0195-0.1269-0.0146-0.0342-0.039-0.0537-0.0635-0.0537-0.19036-0.11226-0.12202-0.0586-0.26356-0.12202-0.41975-0.13178-0.65891-0.34654-0.17083-0.1513-0.25869-0.34654-0.0879-0.19523-0.0879-0.42463t0.083-0.43439q0.0879-0.20988 0.24893-0.37094 0.15618-0.16107 0.36118-0.24893 0.20499-0.0879 0.43439-0.0879t0.43439 0.0879q0.205 0.0879 0.36606 0.24893 0.15619 0.16106 0.24405 0.37094 0.0879 0.20499 0.0879 0.43439h-0.74188q0-0.16107-0.11714-0.27332-0.11226-0.11714-0.27333-0.11714-0.15619 0-0.27333 0.11714-0.11226 0.11225-0.11226 0.27332 0 0.0293 5e-3 0.0781 0.01 0.0439 0.0537 0.0976 0.0488 0.0537 0.14643 0.11226 0.1025 0.0586 0.28797 0.11714l0.0195 0.01 0.0146 5e-3q0.21476 0.0879 0.38559 0.17083 0.17083 0.083 0.29773 0.20012 0.30749 0.2782 0.30749 0.74188 0 0.2294-0.0879 0.43927-0.0879 0.205-0.24405 0.36607-0.16106 0.16106-0.36606 0.24892-0.20499 0.083-0.43439 0.083z"/>
  </g>
  <path d="m134.52 115.96v0.28598q0.17636-0.17636 0.38132-0.26454 0.20496-0.0882 0.43851-0.0882 0.50762 0 0.86272 0.38369 0.3551 0.3837 0.3551 0.98427 0 0.57912-0.36701 0.96997-0.36702 0.38846-0.86988 0.38846-0.22402 0-0.41706-0.0786-0.19304-0.081-0.3837-0.26216v1.2226h-0.64585v-3.5414zm0.68399 0.53384q-0.30744 0-0.51001 0.20972t-0.20257 0.54814q0 0.34556 0.20257 0.56005 0.20257 0.21211 0.51001 0.21211 0.2979 0 0.50047-0.21687 0.20496-0.21688 0.20496-0.55291 0-0.33365-0.20019-0.54575-0.20019-0.21449-0.50524-0.21449z"/>
  <path d="m139.7 117.45h-2.0901q0.0453 0.27645 0.24071 0.44089 0.19781 0.16206 0.50286 0.16206 0.36463 0 0.62678-0.255l0.54814 0.25739q-0.20495 0.29075-0.49094 0.43136-0.28599 0.13822-0.67922 0.13822-0.6101 0-0.9938-0.38369-0.38369-0.38608-0.38369-0.96521 0-0.59342 0.38131-0.98426 0.3837-0.39323 0.96044-0.39323 0.61248 0 0.99618 0.39323 0.3837 0.39084 0.3837 1.0343zm-0.653-0.51239q-0.0643-0.21688-0.255-0.35272-0.18827-0.13584-0.43851-0.13584-0.27169 0-0.47665 0.15252-0.12869 0.0953-0.23832 0.33604z"/>
  <path d="m142.78 116.63v0.57594h-2.2305v-0.57594z" stroke-width=".12202"/>
  <path d="m144.71 118.54h-0.75164v-3.7729h0.75164z" stroke-width=".12202"/>
 </g>
 <g transform="matrix(1.8469 0 0 1.8469 -208.03 -138.29)" stroke-width=".12202" aria-label="eco-ri, Xba-I">
  <g stroke-width=".12202">
   <path d="m222.35 111.24h-1.5912v0.76141h1.2837v0.75165h-1.2837v0.75652h1.5912v0.75165h-2.3428v-3.7729h2.3428z"/>
   <path d="m225.77 112.22-0.54099 0.2979q-0.15252-0.15967-0.30267-0.22163-0.14775-0.062-0.34794-0.062-0.36464 0-0.59104 0.21926-0.22402 0.21687-0.22402 0.55767 0 0.33127 0.21687 0.54099t0.56959 0.20972q0.43612 0 0.67921-0.2979l0.51239 0.35033q-0.41706 0.54099-1.1773 0.54099-0.68399 0-1.0724-0.40514-0.38608-0.40515-0.38608-0.94852 0-0.37655 0.18827-0.69352 0.18828-0.31697 0.52431-0.49809 0.33842-0.18112 0.75548-0.18112 0.38608 0 0.69351 0.1549 0.30744 0.15253 0.50286 0.43613z"/>
   <path d="m227.57 111.62q0.36701 0 0.68875 0.1835 0.32412 0.18351 0.50524 0.4981 0.18112 0.31458 0.18112 0.67921 0 0.36702-0.1835 0.68637-0.18113 0.31935-0.49571 0.50047-0.31459 0.17874-0.69352 0.17874-0.55767 0-0.95328-0.39561-0.39323-0.398-0.39323-0.9652 0-0.60772 0.44566-1.0129 0.39084-0.35271 0.89847-0.35271zm0.01 0.61248q-0.30267 0-0.50524 0.21211-0.20019 0.20972-0.20019 0.5386 0 0.33842 0.19781 0.54814 0.20019 0.20973 0.50524 0.20973t0.50762-0.21211q0.20258-0.21211 0.20258-0.54576t-0.20019-0.54099q-0.19781-0.20972-0.50763-0.20972z"/>
   <path d="m232.04 112.36v0.57594h-2.2305v-0.57594z"/>
   <path d="m235.58 111.62q0 0.31238-0.1513 0.57106-0.15131 0.2538-0.40023 0.40023l0.55153 1.6595v0.01h-0.79069l-0.49785-1.5082h-0.33677v1.5082h-0.75165v-3.7729h1.2446q0.23428 0 0.43927 0.0927 0.205 0.0879 0.35631 0.24404 0.15618 0.15131 0.24404 0.3563 0.0927 0.20499 0.0927 0.43927zm-1.6253 0.40023h0.40023q0.16106 0 0.2782-0.11714t0.11714-0.28309q0-0.16594-0.11714-0.2782-0.11714-0.11714-0.2782-0.11714h-0.40023z"/>
   <path d="m237.36 114.26h-0.75165v-3.7729h0.75165z"/>
   <path d="m238.2 114.63 0.0927-0.39535q-0.0244-0.01-0.0439-0.0244-0.0146-0.0146-0.0342-0.0293-0.0879-0.0927-0.0879-0.21964 0-0.1269 0.0879-0.21476 0.0927-0.0927 0.21964-0.0927 0.1269 0 0.21964 0.0927 0.0879 0.0879 0.0879 0.21476 0 0.1269-0.0879 0.21964z"/>
   <path d="m243.38 113.03-0.78581 1.23h-0.89319l1.2397-1.9377-1.147-1.8352h0.88831l0.70772 1.1324 0.72236-1.1324h0.89319l-1.1763 1.8401 1.2104 1.9328h-0.88831z"/>
  </g>
  <path d="m246.38 110.69v1.2869q0.17636-0.17636 0.38132-0.26454 0.20495-0.0882 0.43851-0.0882 0.50762 0 0.86272 0.38369 0.3551 0.3837 0.3551 0.98427 0 0.57912-0.36701 0.96997-0.36702 0.38846-0.86988 0.38846-0.22402 0-0.41706-0.0786-0.19304-0.081-0.3837-0.26216v0.27407h-0.64585v-3.5939zm0.68398 1.5348q-0.30743 0-0.51 0.20972-0.20258 0.20972-0.20258 0.54814 0 0.34556 0.20258 0.56005 0.20257 0.21211 0.51 0.21211 0.29791 0 0.50048-0.21687 0.20496-0.21688 0.20496-0.55291 0-0.33365-0.20019-0.54575-0.20019-0.21449-0.50525-0.21449z"/>
  <path d="m250.87 111.69h0.64823v2.5929h-0.64823v-0.27407q-0.19066 0.18113-0.3837 0.26216-0.19065 0.0786-0.41468 0.0786-0.50285 0-0.86987-0.38846-0.36702-0.39085-0.36702-0.96997 0-0.60057 0.3551-0.98427 0.3551-0.38369 0.86273-0.38369 0.23355 0 0.43851 0.0882t0.37893 0.26454zm-0.68398 0.53384q-0.30267 0-0.50286 0.21449-0.20019 0.2121-0.20019 0.54575 0 0.33603 0.20257 0.55291 0.20496 0.21687 0.50286 0.21687 0.30744 0 0.51001-0.21211 0.20257-0.21449 0.20257-0.56005 0-0.33842-0.20257-0.54814t-0.51239-0.20972z"/>
  <path d="m254.74 112.36v0.57594h-2.2305v-0.57594z" stroke-width=".12202"/>
  <path d="m256.67 114.26h-0.75165v-3.7729h0.75165z" stroke-width=".12202"/>
 </g>
 <g transform="translate(-22.765 -43.659)" fill="none" stroke-width="2.5">
  <path d="m87.351 169.19h40.67" stroke="#a1e5bc"/>
  <g stroke="#000">
   <path d="m76.875 169.19h11.037"/>
   <path d="m78.017 162.14v14.098"/>
   <path d="m87.918 162.14v14.098"/>
   <path d="m128.32 162.14v14.098"/>
  </g>
 </g>
 <g transform="translate(-22.765 -43.659)">
  <g aria-label="e">
   <path d="m80.309 154h-2.6613v1.2735h2.147v1.2572h-2.147v1.2653h2.6613v1.2572h-3.9185v-6.3104h3.9185z" stroke-width=".20409"/>
  </g>
  <g aria-label="x">
   <path d="m88.218 157-1.3143 2.0572h-1.4939l2.0735-3.2409-1.9184-3.0695h1.4858l1.1837 1.8939 1.2082-1.8939h1.4939l-1.9674 3.0776 2.0246 3.2328h-1.4858z" stroke-width=".20409"/>
  </g>
  <g aria-label="s">
   <path d="m128.62 159.06q-0.38368 0-0.72655-0.13878-0.34287-0.14695-0.6041-0.41634-0.26939-0.2694-0.41634-0.61227-0.13878-0.35103-0.13878-0.73471h1.2409q0 0.26939 0.18776 0.46532 0.19592 0.18776 0.45715 0.18776 0.2694 0 0.45716-0.18776 0.19593-0.19593 0.19593-0.46532 0-0.16327-0.0327-0.21225-0.0245-0.0571-0.0653-0.0898-0.10612-0.0898-0.31837-0.18776-0.20409-0.098-0.44083-0.20409-0.70207-0.22042-1.1021-0.57961-0.28572-0.25307-0.43266-0.57961-0.14695-0.32654-0.14695-0.71023 0-0.38368 0.13878-0.72655 0.14695-0.35103 0.41634-0.62042 0.26123-0.2694 0.6041-0.41634 0.34287-0.14695 0.72655-0.14695 0.38369 0 0.72656 0.14695 0.34286 0.14694 0.61226 0.41634 0.26123 0.26939 0.40818 0.62042 0.14694 0.34287 0.14694 0.72655h-1.2408q0-0.26939-0.19593-0.45715-0.18776-0.19593-0.45716-0.19593-0.26123 0-0.45715 0.19593-0.18776 0.18776-0.18776 0.45715 0 0.049 8e-3 0.13062 0.0163 0.0735 0.0898 0.16327 0.0816 0.0898 0.2449 0.18776 0.17144 0.098 0.48165 0.19593l0.0327 0.0163 0.0245 8e-3q0.35919 0.14694 0.64491 0.28572 0.28573 0.13878 0.49798 0.3347 0.5143 0.46532 0.5143 1.2409 0 0.38368-0.14694 0.73471-0.14695 0.34287-0.40818 0.61227-0.2694 0.26939-0.61226 0.41634-0.34287 0.13878-0.72656 0.13878z" stroke-width=".20409"/>
  </g>
 </g>
 <path d="m158.06 111.67h85.21c8.2197 0 14.837 6.6173 14.837 14.837s-6.6173 14.837-14.837 14.837h-85.21c-8.2197 0-14.837-6.6173-14.837-14.837s6.6173-14.837 14.837-14.837z" fill="none" stroke="#000" stroke-linecap="round" stroke-linejoin="round" stroke-width="2.5"/>
 <path d="m166.62 111.67h39.083" fill="#fff" stroke="#f6f5dc" stroke-width="2.8"/>
 <g transform="translate(-22.765 -43.659)" fill="none">
  <path d="m189.46 147.44v14.098" stroke="#000" stroke-width="2.5"/>
  <path d="m227.41 155.33h23.737" stroke="#ffb0cf" stroke-width="2.8"/>
  <g stroke="#000" stroke-width="2.5">
   <path d="m227.89 147.44v14.098"/>
   <path d="m259.11 147.71v14.098"/>
   <path d="m250.85 147.71v14.098"/>
  </g>
 </g>
 <g transform="translate(-22.765 -43.659)">
  <g aria-label="e">
   <path d="m191.42 140.16h-2.6613v1.2735h2.147v1.2572h-2.147v1.2653h2.6613v1.2572h-3.9185v-6.3104h3.9185z" stroke-width=".20409"/>
  </g>
  <g aria-label="x">
   <path d="m227.91 143.15-1.3143 2.0572h-1.4939l2.0735-3.2409-1.9184-3.0695h1.4858l1.1837 1.8939 1.2082-1.8939h1.4939l-1.9674 3.0776 2.0246 3.2328h-1.4858z" stroke-width=".20409"/>
  </g>
  <g aria-label="s">
   <path d="m250.84 145.21q-0.38369 0-0.72656-0.13878-0.34286-0.14694-0.6041-0.41634-0.26939-0.26939-0.41633-0.61226-0.13878-0.35103-0.13878-0.73472h1.2408q0 0.2694 0.18776 0.46532 0.19592 0.18776 0.45716 0.18776 0.26939 0 0.45715-0.18776 0.19593-0.19592 0.19593-0.46532 0-0.16327-0.0327-0.21225-0.0245-0.0571-0.0653-0.0898-0.10613-0.0898-0.31838-0.18776-0.20409-0.098-0.44083-0.20409-0.70206-0.22041-1.1021-0.5796-0.28573-0.25307-0.43267-0.57961t-0.14694-0.71023q0-0.38368 0.13878-0.72655 0.14694-0.35103 0.41633-0.62043 0.26124-0.26939 0.6041-0.41634 0.34287-0.14694 0.72656-0.14694 0.38368 0 0.72655 0.14694 0.34287 0.14695 0.61226 0.41634 0.26124 0.2694 0.40818 0.62043 0.14694 0.34287 0.14694 0.72655h-1.2408q0-0.2694-0.19593-0.45716-0.18776-0.19592-0.45715-0.19592-0.26124 0-0.45716 0.19592-0.18776 0.18776-0.18776 0.45716 0 0.049 8e-3 0.13062 0.0163 0.0735 0.0898 0.16327 0.0816 0.0898 0.24491 0.18776 0.17143 0.098 0.48164 0.19592l0.0327 0.0163 0.0245 8e-3q0.35919 0.14695 0.64492 0.28573 0.28572 0.13878 0.49797 0.3347 0.5143 0.46532 0.5143 1.2408 0 0.38369-0.14694 0.73472-0.14694 0.34287-0.40818 0.61226-0.26939 0.2694-0.61226 0.41634-0.34287 0.13878-0.72655 0.13878z" stroke-width=".20409"/>
  </g>
  <g aria-label="p">
   <path d="m259.2 138.91q0.39185 0 0.73471 0.15511 0.34287 0.14694 0.59594 0.40817 0.26123 0.25307 0.40818 0.59594 0.1551 0.34287 0.1551 0.73472 0 0.39184-0.1551 0.74287-0.14695 0.34287-0.40818 0.6041-0.25307 0.25307-0.59594 0.40002-0.34286 0.14694-0.73471 0.14694h-0.82452v2.5144h-1.2572v-6.3022h0.62859zm-0.15511 2.5552q0.2694 0 0.46532-0.18776 0.19593-0.19593 0.19593-0.47348 0-0.27756-0.19593-0.46533-0.19592-0.19592-0.46532-0.19592h-0.66941v1.3225z" stroke-width=".20409"/>
  </g>
  <g stroke-width=".12202" aria-label="rfp">
   <path d="m237.12 148.84q0 0.31238-0.15131 0.57106-0.1513 0.2538-0.40022 0.40023l0.55153 1.6595v0.01h-0.79069l-0.49785-1.5082h-0.33678v1.5082h-0.75164v-3.7729h1.2446q0.23428 0 0.43927 0.0927 0.205 0.0879 0.3563 0.24404 0.15619 0.1513 0.24404 0.3563 0.0927 0.20499 0.0927 0.43927zm-1.6253 0.40023h0.40023q0.16107 0 0.27821-0.11714t0.11714-0.28309q0-0.16594-0.11714-0.2782-0.11714-0.11714-0.27821-0.11714h-0.40023z"/>
   <path d="m240.51 148.46h-1.5912v0.76141h1.2836v0.75164h-1.2836v1.5082h-0.75165v-3.7729h2.3428z"/>
   <path d="m242.7 147.71q0.23428 0 0.43928 0.0927 0.20499 0.0879 0.3563 0.24404 0.15618 0.1513 0.24404 0.3563 0.0927 0.20499 0.0927 0.43927t-0.0927 0.44416q-0.0879 0.20499-0.24404 0.36118-0.15131 0.1513-0.3563 0.23916-0.205 0.0879-0.43928 0.0879h-0.49296v1.5033h-0.75165v-3.768h0.37583zm-0.0927 1.5277q0.16106 0 0.2782-0.11226 0.11714-0.11714 0.11714-0.28309 0-0.16594-0.11714-0.2782-0.11714-0.11714-0.2782-0.11714h-0.40023v0.79069z"/>
  </g>
  <g aria-label="+">
   <path d="m146.97 166.74v-3.4986h2.3324v3.4986h3.4892v2.3324h-3.4892v3.4892h-2.3324v-3.4892h-3.4986v-2.3324z" stroke-width=".47767"/>
  </g>
 </g>
 <g transform="translate(-22.765 -43.659)">
  <path d="m148.54 214.12v-28.808h0.56697" fill="none" marker-start="url(#TriangleInS-5)" stroke="#000" stroke-width="2.5"/>
  <path d="m109.61 237.02h85.21c8.2197 0 14.837 6.6173 14.837 14.837s-6.6173 14.837-14.837 14.837h-85.21c-8.2197 0-14.837-6.6173-14.837-14.837s6.6173-14.837 14.837-14.837z" fill="none" stroke="#000" stroke-linecap="round" stroke-linejoin="round" stroke-width="2.5"/>
  <path d="m120.81 237.02h39.083" fill="#fff" stroke="#a1e5bc" stroke-width="2.8"/>
 </g>
 <g transform="translate(-22.765 -43.659)" fill="none">
  <path d="m120.89 229.13v14.098" stroke="#000" stroke-width="2.5"/>
  <path d="m158.78 237.09h23.737" stroke="#ffb0cf" stroke-width="2.8"/>
  <g stroke="#000" stroke-width="2.5">
   <path d="m159.32 229.13v14.098"/>
   <path d="m190.53 229.4v14.098"/>
   <path d="m182.28 229.4v14.098"/>
  </g>
 </g>
 <g transform="translate(-22.765 -43.659)">
  <g aria-label="e">
   <path d="m122.85 221.85h-2.6613v1.2735h2.147v1.2572h-2.147v1.2654h2.6613v1.2572h-3.9185v-6.3104h3.9185z" stroke-width=".20409"/>
  </g>
  <g aria-label="s">
   <path d="m182.27 226.9q-0.38368 0-0.72655-0.13878-0.34287-0.14694-0.6041-0.41634-0.2694-0.2694-0.41634-0.61226-0.13878-0.35103-0.13878-0.73472h1.2408q0 0.2694 0.18776 0.46532 0.19593 0.18776 0.45716 0.18776 0.2694 0 0.45716-0.18776 0.19592-0.19592 0.19592-0.46532 0-0.16327-0.0326-0.21225-0.0245-0.0572-0.0653-0.0898-0.10613-0.0898-0.31838-0.18776-0.20408-0.098-0.44083-0.20409-0.70206-0.22041-1.1021-0.57961-0.28572-0.25307-0.43267-0.57961-0.14694-0.32654-0.14694-0.71022 0-0.38369 0.13878-0.72655 0.14694-0.35104 0.41634-0.62043 0.26123-0.2694 0.6041-0.41634t0.72655-0.14694q0.38369 0 0.72655 0.14694 0.34287 0.14694 0.61227 0.41634 0.26123 0.26939 0.40817 0.62043 0.14695 0.34286 0.14695 0.72655h-1.2409q0-0.2694-0.19592-0.45716-0.18776-0.19592-0.45716-0.19592-0.26123 0-0.45716 0.19592-0.18776 0.18776-0.18776 0.45716 0 0.049 8e-3 0.13061 0.0163 0.0735 0.0898 0.16327 0.0816 0.0898 0.2449 0.18777 0.17143 0.098 0.48165 0.19592l0.0327 0.0163 0.0245 8e-3q0.3592 0.14694 0.64492 0.28572t0.49797 0.33471q0.51431 0.46532 0.51431 1.2408 0 0.38369-0.14695 0.73472-0.14694 0.34286-0.40817 0.61226-0.2694 0.2694-0.61227 0.41634-0.34286 0.13878-0.72655 0.13878z" stroke-width=".20409"/>
  </g>
  <g aria-label="p">
   <path d="m190.62 220.6q0.39185 0 0.73472 0.1551 0.34287 0.14695 0.59593 0.40818 0.26124 0.25307 0.40818 0.59594 0.15511 0.34286 0.15511 0.73471t-0.15511 0.74288q-0.14694 0.34287-0.40818 0.6041-0.25306 0.25307-0.59593 0.40001-0.34287 0.14695-0.73472 0.14695h-0.82451v2.5144h-1.2572v-6.3022h0.62859zm-0.15511 2.5552q0.2694 0 0.46533-0.18776 0.19592-0.19593 0.19592-0.47349t-0.19592-0.46532q-0.19593-0.19592-0.46533-0.19592h-0.6694v1.3225z" stroke-width=".20409"/>
  </g>
  <g stroke-width=".12202" aria-label="rfp">
   <path d="m168.55 230.53q0 0.31237-0.1513 0.57106-0.15131 0.2538-0.40023 0.40022l0.55153 1.6595v0.01h-0.79069l-0.49784-1.5082h-0.33678v1.5082h-0.75165v-3.7729h1.2446q0.23428 0 0.43928 0.0927 0.20499 0.0879 0.3563 0.24405 0.15618 0.1513 0.24404 0.3563 0.0927 0.20499 0.0927 0.43927zm-1.6253 0.40023h0.40023q0.16106 0 0.2782-0.11714t0.11714-0.28309-0.11714-0.27821q-0.11714-0.11714-0.2782-0.11714h-0.40023z"/>
   <path d="m171.94 230.15h-1.5912v0.7614h1.2837v0.75165h-1.2837v1.5082h-0.75165v-3.7729h2.3428z"/>
   <path d="m174.12 229.4q0.23428 0 0.43927 0.0927 0.205 0.0879 0.3563 0.24405 0.15619 0.1513 0.24404 0.3563 0.0927 0.20499 0.0927 0.43927t-0.0927 0.44416q-0.0879 0.20499-0.24404 0.36118-0.1513 0.1513-0.3563 0.23916-0.20499 0.0878-0.43927 0.0878h-0.49297v1.5033h-0.75164v-3.768h0.37582zm-0.0927 1.5277q0.16107 0 0.27821-0.11226 0.11714-0.11714 0.11714-0.28309t-0.11714-0.27821q-0.11714-0.11714-0.27821-0.11714h-0.40023v0.7907z"/>
  </g>
 </g>
 <g transform="translate(81.348 41.626)" fill="none" stroke="#000" stroke-width="2.5">
  <path d="m-65.261 371.79h85.21c8.2197 0 14.837 6.6173 14.837 14.837s-6.6173 14.837-14.837 14.837h-85.21c-8.2197 0-14.837-6.6173-14.837-14.837s6.6173-14.837 14.837-14.837z" stroke-linecap="round" stroke-linejoin="round"/>
  <path d="m-29.636 363.91v14.098"/>
  <path d="m-13.439 364.17v14.098"/>
 </g>
 <g transform="translate(81.348 41.626)" aria-label="e">
  <path d="m-27.676 356.62h-2.6613v1.2735h2.147v1.2572h-2.147v1.2653h2.6613v1.2572h-3.9185v-6.3104h3.9185z" stroke-width=".20409"/>
 </g>
 <g transform="translate(81.348 41.626)" aria-label="p">
  <path d="m-13.346 355.37q0.39185 0 0.73472 0.1551 0.34287 0.14695 0.59594 0.40818 0.26123 0.25307 0.40818 0.59594 0.15511 0.34286 0.15511 0.73471t-0.15511 0.74288q-0.14694 0.34287-0.40818 0.6041-0.25307 0.25307-0.59594 0.40001-0.34287 0.14695-0.73472 0.14695h-0.82452v2.5144h-1.2572v-6.3022h0.62859zm-0.15511 2.5552q0.2694 0 0.46532-0.18776 0.19592-0.19593 0.19592-0.47349t-0.19592-0.46532q-0.19592-0.19592-0.46532-0.19592h-0.66941v1.3225z" stroke-width=".20409"/>
 </g>
 <path d="m60.102 368.26v21.4" fill="none" marker-start="url(#TriangleInS-5-9-5)" stroke="#000" stroke-width="2.5"/>
 <g transform="matrix(1.9471 0 0 1.9471 -21.487 -351.17)" stroke-width=".12202" aria-label="eco-ri, Pst-I">
  <path d="m49.966 373.46h-1.5911v0.7614h1.2837v0.75165h-1.2837v0.75653h1.5911v0.75165h-2.3428v-3.7729h2.3428z"/>
  <path d="m53.38 374.43-0.54099 0.2979q-0.15253-0.15967-0.30267-0.22164-0.14776-0.062-0.34795-0.062-0.36463 0-0.59104 0.21925-0.22402 0.21688-0.22402 0.55768 0 0.33126 0.21687 0.54099 0.21687 0.20972 0.56959 0.20972 0.43613 0 0.67922-0.2979l0.51239 0.35033q-0.41706 0.54099-1.1773 0.54099-0.68398 0-1.0724-0.40515-0.38608-0.40514-0.38608-0.94852 0-0.37654 0.18827-0.69351t0.52431-0.49809q0.33842-0.18113 0.75548-0.18113 0.38608 0 0.69352 0.15491 0.30743 0.15253 0.50286 0.43613z"/>
  <path d="m55.187 373.84q0.36702 0 0.68875 0.18351 0.32412 0.18351 0.50524 0.49809 0.18112 0.31459 0.18112 0.67922 0 0.36701-0.18351 0.68636-0.18112 0.31935-0.49571 0.50048-0.31458 0.17874-0.69352 0.17874-0.55767 0-0.95329-0.39561-0.39323-0.398-0.39323-0.96521 0-0.60772 0.44566-1.0129 0.39085-0.35272 0.89847-0.35272zm0.0095 0.61249q-0.30267 0-0.50524 0.2121-0.20019 0.20973-0.20019 0.53861 0 0.33842 0.19781 0.54814 0.20019 0.20972 0.50524 0.20972t0.50762-0.2121q0.20257-0.21211 0.20257-0.54576t-0.20019-0.54099q-0.19781-0.20972-0.50762-0.20972z"/>
  <path d="m59.651 374.58v0.57594h-2.2305v-0.57594z"/>
  <path d="m63.198 373.84q0 0.31237-0.1513 0.57106-0.15131 0.2538-0.40023 0.40022l0.55153 1.6595v0.01h-0.79069l-0.49784-1.5082h-0.33678v1.5082h-0.75165v-3.7729h1.2446q0.23428 0 0.43927 0.0927 0.205 0.0879 0.3563 0.24405 0.15619 0.1513 0.24404 0.3563 0.09274 0.20499 0.09274 0.43927zm-1.6253 0.40023h0.40023q0.16107 0 0.27821-0.11714t0.11714-0.28309-0.11714-0.27821q-0.11714-0.11714-0.27821-0.11714h-0.40023z"/>
  <path d="m64.976 376.48h-0.75165v-3.7729h0.75165z"/>
  <path d="m65.811 376.84 0.09274-0.39535q-0.0244-0.01-0.04393-0.0244-0.01464-0.0147-0.03417-0.0293-0.08785-0.0927-0.08785-0.21964 0-0.1269 0.08785-0.21475 0.09274-0.0927 0.21964-0.0927t0.21964 0.0927q0.08785 0.0879 0.08785 0.21475 0 0.12691-0.08785 0.21964z"/>
  <path d="m70.604 372.71q0.23428 0 0.43927 0.0927 0.205 0.0879 0.3563 0.24405 0.15619 0.1513 0.24404 0.3563 0.09274 0.20499 0.09274 0.43927t-0.09274 0.44416q-0.08785 0.20499-0.24404 0.36118-0.1513 0.1513-0.3563 0.23916-0.205 0.0879-0.43927 0.0879h-0.49296v1.5033h-0.75165v-3.768h0.37582zm-0.09274 1.5277q0.16107 0 0.27821-0.11226 0.11714-0.11714 0.11714-0.28309t-0.11714-0.27821q-0.11714-0.11714-0.27821-0.11714h-0.40023v0.7907z"/>
  <path d="m74.059 374.27-0.40276 0.40276q-0.24547-0.24308-0.44566-0.24308-0.10963 0-0.17159 0.0477-0.06196 0.0453-0.06196 0.11439 0 0.0524 0.03813 0.0977 0.04051 0.0429 0.19542 0.11916l0.23832 0.11916q0.37655 0.18589 0.51716 0.37893t0.14061 0.45281q0 0.34557-0.255 0.57674-0.25262 0.23117-0.67922 0.23117-0.56721 0-0.90562-0.44328l0.40038-0.43613q0.11439 0.13346 0.26692 0.21688 0.15491 0.081 0.27407 0.081 0.12869 0 0.20734-0.062t0.07865-0.14299q0-0.15014-0.2836-0.29314l-0.21926-0.10962q-0.62917-0.31697-0.62917-0.79362 0-0.30743 0.23594-0.5243 0.23832-0.21926 0.60772-0.21926 0.25262 0 0.47426 0.11201 0.22402 0.10963 0.37893 0.31697z"/>
  <path d="m74.696 372.95h0.64824v0.95567h0.38608v0.56006h-0.38608v2.0329h-0.64824v-2.0329h-0.33365v-0.56006h0.33365z"/>
  <path d="m78.641 374.58v0.57594h-2.2305v-0.57594z"/>
  <path d="m80.571 376.48h-0.75165v-3.7729h0.75165z"/>
 </g>
 <g transform="translate(81.348 41.626)" stroke-width=".15411" aria-label="pCambia-mcs">
  <path d="m-45.401 409.35v0.3612q0.22274-0.22274 0.4816-0.33411t0.55384-0.11137q0.64113 0 1.0896 0.48461 0.44849 0.48462 0.44849 1.2431 0 0.73143-0.46354 1.2251-0.46354 0.49063-1.0987 0.49063-0.28294 0-0.52675-0.0993-0.24381-0.10234-0.48461-0.3311v1.5441h-0.81572v-4.4729zm0.86388 0.67424q-0.38829 0-0.64414 0.26489-0.25585 0.26488-0.25585 0.6923 0 0.43645 0.25585 0.70735 0.25585 0.26789 0.64414 0.26789 0.37625 0 0.6321-0.27391 0.25886-0.27391 0.25886-0.69832 0-0.4214-0.25284-0.68929-0.25284-0.27091-0.63812-0.27091z"/>
  <path d="m-39.733 411.64q0.23425 0 0.44384-0.074 0.21576-0.074 0.39453-0.20343l0.90002 0.45617q-0.32056 0.36371-0.77056 0.5733-0.44384 0.2096-0.96783 0.2096-0.487 0-0.91235-0.18494-0.42535-0.1911-0.74591-0.51166-0.31439-0.32671-0.49932-0.75823-0.18494-0.43152-0.18494-0.92468t0.18494-0.92467q0.18494-0.43769 0.49932-0.75824 0.32056-0.32672 0.74591-0.51166 0.42535-0.1911 0.91235-0.1911 0.52398 0 0.96783 0.2096 0.45001 0.20959 0.77056 0.5733l-0.90002 0.45617q-0.17877-0.12945-0.39453-0.20343-0.20959-0.074-0.44384-0.074-0.28973 0-0.54248 0.11096t-0.44384 0.30206q-0.18494 0.1911-0.2959 0.45001-0.11096 0.25275-0.11713 0.54248v0.0307q0.0062 0.28973 0.11713 0.54864 0.11096 0.25275 0.2959 0.44385 0.1911 0.1911 0.44384 0.30206t0.54248 0.11096z"/>
  <path d="m-34.309 412.6-0.32672-0.87536h-1.3747l-0.33288 0.87536h-1.0171l1.8062-4.7652h0.46234l1.8 4.7652zm-1.3809-1.7261h0.72741l-0.35754-0.9555h-0.0062z"/>
  <path d="m-29.026 407.83h0.94934v4.7652h-0.94934v-3.1994l-1.1651 1.535-1.1528-1.5226v3.187h-0.94934v-4.7652h0.94934l1.1528 1.5226 1.1528-1.5226 0.01233 6e-3v-6e-3z"/>
  <path d="m-24.68 410.14q0.17877 0.0678 0.32672 0.1911 0.14795 0.11712 0.25274 0.27124 0.11096 0.15411 0.17261 0.33905 0.06165 0.18493 0.06165 0.38836 0 0.26507-0.1048 0.49933-0.09863 0.22808-0.27124 0.40069t-0.40686 0.27124q-0.22809 0.0986-0.49316 0.0986h-2.0035v-4.7652h1.7199q0.26507 0 0.49316 0.1048 0.23425 0.0986 0.40686 0.27124 0.17261 0.1726 0.27124 0.40685 0.1048 0.22809 0.1048 0.49317 0 0.31439-0.14795 0.58562-0.14178 0.27124-0.3822 0.44385zm-1.5165-0.59796h0.49933q0.17877 0 0.30823-0.12329 0.12946-0.12945 0.12946-0.30822 0-0.17878-0.12946-0.30823-0.12946-0.12946-0.30823-0.12946h-0.49933zm0.71508 2.2192q0.17877 0 0.30823-0.12329 0.12946-0.12946 0.12946-0.30823t-0.12946-0.30823q-0.12946-0.12945-0.30823-0.12945h-0.71508v0.8692h0.43768z"/>
  <path d="m-21.792 412.6h-0.94934v-4.7652h0.94934z"/>
  <path d="m-17.694 412.6-0.32672-0.87536h-1.3747l-0.33288 0.87536h-1.0171l1.8062-4.7652h0.46234l1.8 4.7652zm-1.3809-1.7261h0.72741l-0.35754-0.9555h-0.0062z"/>
  <path d="m-12.491 410.2v0.72741h-2.8172v-0.72741z"/>
  <path d="m-7.9323 407.83h0.94934v4.7652h-0.94934v-3.1994l-1.1651 1.535-1.1528-1.5226v3.187h-0.94934v-4.7652h0.94934l1.1528 1.5226 1.1528-1.5226 0.012329 6e-3z"/>
  <path d="m-3.6971 411.64q0.23425 0 0.44385-0.074 0.21576-0.074 0.39453-0.20343l0.90002 0.45617q-0.32055 0.36371-0.77056 0.5733-0.44385 0.2096-0.96783 0.2096-0.487 0-0.91235-0.18494-0.42535-0.1911-0.74591-0.51166-0.31439-0.32671-0.49933-0.75823t-0.18494-0.92468 0.18494-0.92467q0.18494-0.43769 0.49933-0.75824 0.32055-0.32672 0.74591-0.51166 0.42535-0.1911 0.91235-0.1911 0.52398 0 0.96783 0.2096 0.45001 0.20959 0.77056 0.5733l-0.90002 0.45617q-0.17877-0.12945-0.39453-0.20343-0.20959-0.074-0.44385-0.074-0.28973 0-0.54248 0.11096t-0.44385 0.30206q-0.18494 0.1911-0.2959 0.45001-0.11096 0.25275-0.11713 0.54248v0.0307q0.00616 0.28973 0.11713 0.54864 0.11096 0.25275 0.2959 0.44385 0.1911 0.1911 0.44385 0.30206t0.54248 0.11096z"/>
  <path d="m0.45359 412.62q-0.28973 0-0.54864-0.10479-0.25891-0.11096-0.45617-0.31439-0.20343-0.20343-0.31439-0.46234-0.1048-0.26508-0.1048-0.55481h0.93701q0 0.20343 0.14178 0.35138 0.14795 0.14178 0.34521 0.14178 0.20343 0 0.34521-0.14178 0.14795-0.14795 0.14795-0.35138 0-0.12329-0.024658-0.16028-0.018494-0.0431-0.049316-0.0678-0.080139-0.0678-0.24042-0.14179-0.15411-0.074-0.33288-0.15411-0.53015-0.16644-0.83221-0.43768-0.21576-0.1911-0.32672-0.43768t-0.11096-0.53632q0-0.28973 0.1048-0.54864 0.11096-0.26507 0.31439-0.4685 0.19726-0.20343 0.45617-0.31439t0.54864-0.11096 0.54864 0.11096 0.46234 0.31439q0.19726 0.20343 0.30823 0.4685 0.11096 0.25891 0.11096 0.54864h-0.93701q0-0.20342-0.14795-0.34521-0.14178-0.14795-0.34521-0.14795-0.19726 0-0.34521 0.14795-0.14178 0.14179-0.14178 0.34521 0 0.037 0.0061645 0.0986 0.012329 0.0555 0.06781 0.12329 0.061645 0.0678 0.18494 0.14178 0.12945 0.074 0.36371 0.14795l0.024658 0.0123 0.018494 6e-3q0.27124 0.11096 0.487 0.21576t0.37604 0.25275q0.38836 0.35137 0.38836 0.937 0 0.28973-0.11096 0.55481-0.11096 0.25891-0.30823 0.46234-0.20343 0.20343-0.46234 0.31439-0.25891 0.10479-0.54864 0.10479z"/>
 </g>
 <g transform="translate(-89.97 -44.188)">
  <path d="m107.49 371.32h85.21c8.2197 0 14.837 6.6173 14.837 14.837s-6.6173 14.837-14.837 14.837h-85.21c-8.2197 0-14.837-6.6173-14.837-14.837s6.6173-14.837 14.837-14.837z" fill="none" stroke="#000" stroke-linecap="round" stroke-linejoin="round" stroke-width="2.5"/>
  <path d="m121.08 371.35h61.308" fill="#fff" stroke="#f6f5dc" stroke-width="3"/>
  <path d="m120.89 363.43v14.098" fill="none" stroke="#000" stroke-width="2.5"/>
  <path d="m182.06 363.7v14.098" fill="none" stroke="#000" stroke-width="2.5"/>
 </g>
 <g transform="translate(-89.97 -44.188)" aria-label="e">
  <path d="m122.85 356.15h-2.6613v1.2735h2.147v1.2572h-2.147v1.2654h2.6613v1.2572h-3.9185v-6.3104h3.9185z" stroke-width=".20409"/>
 </g>
 <g transform="translate(-89.97 -44.188)" aria-label="p">
  <path d="m182.16 354.9q0.39185 0 0.73472 0.15511 0.34286 0.14694 0.59593 0.40817 0.26124 0.25307 0.40818 0.59594 0.15511 0.34287 0.15511 0.73472 0 0.39184-0.15511 0.74288-0.14694 0.34286-0.40818 0.6041-0.25307 0.25306-0.59593 0.40001-0.34287 0.14694-0.73472 0.14694h-0.82451v2.5144h-1.2572v-6.3022h0.62859zm-0.15511 2.5552q0.2694 0 0.46532-0.18776 0.19593-0.19592 0.19593-0.47348t-0.19593-0.46532q-0.19592-0.19593-0.46532-0.19593h-0.6694v1.3225z" stroke-width=".20409"/>
 </g>
 <g stroke-width=".11525">
  <g transform="translate(-22.765 -43.659)" aria-label="promoter">
   <path d="m127.88 229.54q0.22127 0 0.41488 0.0876 0.19361 0.083 0.33652 0.23049 0.14751 0.14291 0.23049 0.33652 0.0876 0.19361 0.0876 0.41488 0 0.22128-0.0876 0.4195-0.083 0.19361-0.23049 0.34113-0.14291 0.1429-0.33652 0.22588-0.19361 0.083-0.41488 0.083h-0.46559v1.4198h-0.70992v-3.5588h0.35496zm-0.0876 1.4429q0.15212 0 0.26276-0.10603 0.11064-0.11063 0.11064-0.26737 0-0.15673-0.11064-0.26276-0.11064-0.11063-0.26276-0.11063h-0.378v0.74679z"/>
   <path d="m131.99 230.61q0 0.29503-0.14291 0.53935-0.1429 0.23971-0.378 0.37801l0.52091 1.5673v9e-3h-0.74679l-0.47021-1.4244h-0.31807v1.4244h-0.70992v-3.5634h1.1755q0.22127 0 0.41488 0.0876 0.19362 0.083 0.33652 0.23049 0.14751 0.14291 0.23049 0.33652 0.0876 0.19361 0.0876 0.41488zm-1.5351 0.37801h0.378q0.15213 0 0.26276-0.11064 0.11064-0.11063 0.11064-0.26737 0-0.15673-0.11064-0.26276-0.11063-0.11063-0.26276-0.11063h-0.378z"/>
   <path d="m134.35 229.54q0.3734 0 0.69609 0.14291 0.3273 0.13829 0.57162 0.38261 0.24432 0.23972 0.38261 0.56701 0.14291 0.32269 0.14291 0.69148 0 0.36878-0.14291 0.69147-0.13829 0.32269-0.38261 0.56701-0.24432 0.23971-0.57162 0.38261-0.32269 0.1383-0.69609 0.1383-0.36878 0-0.69608-0.1383-0.3273-0.1429-0.57162-0.38261-0.23971-0.24432-0.38261-0.56701-0.1383-0.32269-0.1383-0.69147 0-0.36879 0.1383-0.69148 0.1429-0.32729 0.38261-0.56701 0.24432-0.24432 0.57162-0.38261 0.3273-0.14291 0.69608-0.14291zm0 2.8443q0.22128 0 0.41489-0.083 0.19822-0.083 0.34113-0.22588 0.14751-0.14752 0.23049-0.33652 0.083-0.19361 0.083-0.41488t-0.083-0.41489q-0.083-0.19361-0.23049-0.33651-0.14291-0.14752-0.34113-0.2305-0.19361-0.083-0.41489-0.083-0.22127 0-0.41949 0.083-0.19361 0.083-0.34113 0.2305-0.1429 0.1429-0.22588 0.33651-0.083 0.19362-0.083 0.41489t0.083 0.41488q0.083 0.189 0.22588 0.33652 0.14752 0.1429 0.34113 0.22588 0.19822 0.083 0.41949 0.083z"/>
   <path d="m139.24 229.54h0.70992v3.5634h-0.70992v-2.3925l-0.87125 1.1478-0.86204-1.1386v2.3833h-0.70991v-3.5634h0.70991l0.86204 1.1386 0.86203-1.1386 9e-3 5e-3v-5e-3z"/>
   <path d="m142.39 229.54q0.37339 0 0.69608 0.14291 0.3273 0.13829 0.57162 0.38261 0.24432 0.23972 0.38261 0.56701 0.14291 0.32269 0.14291 0.69148 0 0.36878-0.14291 0.69147-0.13829 0.32269-0.38261 0.56701-0.24432 0.23971-0.57162 0.38261-0.32269 0.1383-0.69608 0.1383-0.36879 0-0.69609-0.1383-0.32729-0.1429-0.57161-0.38261-0.23972-0.24432-0.38262-0.56701-0.1383-0.32269-0.1383-0.69147 0-0.36879 0.1383-0.69148 0.1429-0.32729 0.38262-0.56701 0.24432-0.24432 0.57161-0.38261 0.3273-0.14291 0.69609-0.14291zm0 2.8443q0.22127 0 0.41488-0.083 0.19822-0.083 0.34113-0.22588 0.14751-0.14752 0.23049-0.33652 0.083-0.19361 0.083-0.41488t-0.083-0.41489q-0.083-0.19361-0.23049-0.33651-0.14291-0.14752-0.34113-0.2305-0.19361-0.083-0.41488-0.083t-0.4195 0.083q-0.19361 0.083-0.34112 0.2305-0.14291 0.1429-0.22589 0.33651-0.083 0.19362-0.083 0.41489t0.083 0.41488q0.083 0.189 0.22589 0.33652 0.14751 0.1429 0.34112 0.22588 0.19823 0.083 0.4195 0.083z"/>
   <path d="m146.94 229.54v0.70992h-0.7514v2.8535h-0.70991v-2.8535h-0.7514v-0.70992z"/>
   <path d="m150.12 230.25h-1.5028v0.71913h1.2124v0.70991h-1.2124v0.71453h1.5028v0.70991h-2.2127v-3.5634h2.2127z"/>
   <path d="m153.36 230.61q0 0.29503-0.14291 0.53935-0.1429 0.23971-0.378 0.37801l0.52091 1.5673v9e-3h-0.7468l-0.4702-1.4244h-0.31808v1.4244h-0.70991v-3.5634h1.1755q0.22127 0 0.41488 0.0876 0.19361 0.083 0.33652 0.23049 0.14751 0.14291 0.23049 0.33652 0.0876 0.19361 0.0876 0.41488zm-1.5351 0.37801h0.37801q0.15212 0 0.26276-0.11064 0.11064-0.11063 0.11064-0.26737 0-0.15673-0.11064-0.26276-0.11064-0.11063-0.26276-0.11063h-0.37801z"/>
  </g>
  <g transform="translate(-22.765 -43.659)" aria-label="promoter">
   <path d="m95.928 161.87q0.22127 0 0.41488 0.0876 0.19361 0.083 0.33652 0.23049 0.14751 0.1429 0.23049 0.33652 0.08759 0.19361 0.08759 0.41488t-0.08759 0.4195q-0.08298 0.19361-0.23049 0.34112-0.1429 0.14291-0.33652 0.22588-0.19361 0.083-0.41488 0.083h-0.46559v1.4198h-0.70991v-3.5588h0.35496zm-0.08759 1.4429q0.15212 0 0.26276-0.10603 0.11064-0.11063 0.11064-0.26737 0-0.15673-0.11064-0.26276-0.11064-0.11063-0.26276-0.11063h-0.37801v0.74679z"/>
   <path d="m100.04 162.94q0 0.29503-0.1429 0.53935-0.1429 0.23971-0.378 0.37801l0.52091 1.5673v9e-3h-0.74679l-0.4702-1.4244h-0.31808v1.4244h-0.70991v-3.5634h1.1755q0.22127 0 0.41488 0.0876 0.19361 0.083 0.33652 0.23049 0.14751 0.1429 0.23049 0.33652 0.08759 0.19361 0.08759 0.41488zm-1.5351 0.37801h0.37801q0.15212 0 0.26276-0.11064 0.11064-0.11063 0.11064-0.26737 0-0.15673-0.11064-0.26276-0.11064-0.11063-0.26276-0.11063h-0.37801z"/>
   <path d="m102.4 161.87q0.37339 0 0.69608 0.14291 0.3273 0.13829 0.57162 0.38261 0.24432 0.23971 0.38261 0.56701 0.14291 0.32269 0.14291 0.69147 0 0.36879-0.14291 0.69148-0.13829 0.32269-0.38261 0.56701-0.24432 0.23971-0.57162 0.38261-0.32269 0.1383-0.69608 0.1383-0.36879 0-0.69609-0.1383-0.32729-0.1429-0.57162-0.38261-0.23971-0.24432-0.38261-0.56701-0.1383-0.32269-0.1383-0.69148 0-0.36878 0.1383-0.69147 0.1429-0.3273 0.38261-0.56701 0.24433-0.24432 0.57162-0.38261 0.3273-0.14291 0.69609-0.14291zm0 2.8443q0.22127 0 0.41488-0.083 0.19822-0.083 0.34113-0.22588 0.14751-0.14752 0.23049-0.33652 0.083-0.19361 0.083-0.41489 0-0.22127-0.083-0.41488t-0.23049-0.33652q-0.14291-0.14751-0.34113-0.23049-0.19361-0.083-0.41488-0.083-0.22128 0-0.4195 0.083-0.19361 0.083-0.34112 0.23049-0.14291 0.14291-0.22589 0.33652-0.083 0.19361-0.083 0.41488 0 0.22128 0.083 0.41489 0.083 0.189 0.22589 0.33652 0.14751 0.1429 0.34112 0.22588 0.19822 0.083 0.4195 0.083z"/>
   <path d="m107.29 161.87h0.70992v3.5634h-0.70992v-2.3925l-0.87125 1.1478-0.86204-1.1386v2.3833h-0.70991v-3.5634h0.70991l0.86204 1.1386 0.86203-1.1386 9e-3 5e-3v-5e-3z"/>
   <path d="m110.44 161.87q0.37339 0 0.69608 0.14291 0.3273 0.13829 0.57162 0.38261 0.24432 0.23971 0.38262 0.56701 0.1429 0.32269 0.1429 0.69147 0 0.36879-0.1429 0.69148-0.1383 0.32269-0.38262 0.56701-0.24432 0.23971-0.57162 0.38261-0.32269 0.1383-0.69608 0.1383-0.36879 0-0.69608-0.1383-0.3273-0.1429-0.57162-0.38261-0.23971-0.24432-0.38262-0.56701-0.13829-0.32269-0.13829-0.69148 0-0.36878 0.13829-0.69147 0.14291-0.3273 0.38262-0.56701 0.24432-0.24432 0.57162-0.38261 0.32729-0.14291 0.69608-0.14291zm0 2.8443q0.22127 0 0.41488-0.083 0.19823-0.083 0.34113-0.22588 0.14751-0.14752 0.23049-0.33652 0.083-0.19361 0.083-0.41489 0-0.22127-0.083-0.41488t-0.23049-0.33652q-0.1429-0.14751-0.34113-0.23049-0.19361-0.083-0.41488-0.083t-0.4195 0.083q-0.19361 0.083-0.34112 0.23049-0.14291 0.14291-0.22588 0.33652-0.083 0.19361-0.083 0.41488 0 0.22128 0.083 0.41489 0.083 0.189 0.22588 0.33652 0.14751 0.1429 0.34112 0.22588 0.19823 0.083 0.4195 0.083z"/>
   <path d="m114.99 161.87v0.70991h-0.75141v2.8535h-0.70991v-2.8535h-0.7514v-0.70991z"/>
   <path d="m118.17 162.58h-1.5028v0.71914h1.2124v0.70991h-1.2124v0.71452h1.5028v0.70992h-2.2127v-3.5634h2.2127z"/>
   <path d="m121.41 162.94q0 0.29503-0.14291 0.53935-0.1429 0.23971-0.378 0.37801l0.52091 1.5673v9e-3h-0.74679l-0.47021-1.4244h-0.31807v1.4244h-0.70992v-3.5634h1.1755q0.22127 0 0.41488 0.0876 0.19361 0.083 0.33652 0.23049 0.14751 0.1429 0.23049 0.33652 0.0876 0.19361 0.0876 0.41488zm-1.5351 0.37801h0.378q0.15213 0 0.26276-0.11064 0.11064-0.11063 0.11064-0.26737 0-0.15673-0.11064-0.26276-0.11063-0.11063-0.26276-0.11063h-0.378z"/>
  </g>
  <g transform="translate(-22.765 -43.659)" aria-label="promoter">
   <path d="m90.636 69.262q0.22127 0 0.41488 0.08759 0.19361 0.08298 0.33652 0.23049 0.14752 0.1429 0.23049 0.33652 0.08759 0.19361 0.08759 0.41488t-0.08759 0.41949q-0.08298 0.19361-0.23049 0.34113-0.1429 0.1429-0.33652 0.22588-0.19361 0.08298-0.41488 0.08298h-0.46559v1.4198h-0.70991v-3.5588h0.35496zm-0.08759 1.4429q0.15212 0 0.26276-0.10603 0.11064-0.11064 0.11064-0.26737t-0.11064-0.26276q-0.11064-0.11064-0.26276-0.11064h-0.378v0.74679z"/>
   <path d="m94.746 70.331q0 0.29503-0.1429 0.53935-0.1429 0.23971-0.378 0.37801l0.52091 1.5673v0.0092h-0.74679l-0.4702-1.4244h-0.31808v1.4244h-0.70991v-3.5634h1.1755q0.22127 0 0.41488 0.08759 0.19361 0.08298 0.33652 0.23049 0.14751 0.1429 0.23049 0.33652 0.08759 0.19361 0.08759 0.41488zm-1.5351 0.378h0.37801q0.15212 0 0.26276-0.11064t0.11064-0.26737-0.11064-0.26276q-0.11064-0.11064-0.26276-0.11064h-0.37801z"/>
   <path d="m97.109 69.266q0.3734 0 0.69608 0.1429 0.3273 0.1383 0.57162 0.38262 0.24432 0.23971 0.38262 0.56701 0.1429 0.32269 0.1429 0.69147t-0.1429 0.69147q-0.13829 0.32269-0.38262 0.56701-0.24432 0.23971-0.57162 0.38262-0.32269 0.13829-0.69608 0.13829-0.36879 0-0.69608-0.13829-0.3273-0.1429-0.57162-0.38262-0.23971-0.24432-0.38262-0.56701-0.1383-0.32269-0.1383-0.69147t0.1383-0.69147q0.1429-0.3273 0.38262-0.56701 0.24432-0.24432 0.57162-0.38262 0.3273-0.1429 0.69608-0.1429zm0 2.8443q0.22127 0 0.41488-0.08298 0.19822-0.08298 0.34113-0.22588 0.14752-0.14752 0.23049-0.33652 0.08298-0.19361 0.08298-0.41488t-0.08298-0.41488-0.23049-0.33652q-0.1429-0.14751-0.34113-0.23049-0.19361-0.08298-0.41488-0.08298t-0.41949 0.08298q-0.19361 0.08298-0.34113 0.23049-0.1429 0.1429-0.22588 0.33652-0.08298 0.19361-0.08298 0.41488t0.08298 0.41488q0.08298 0.189 0.22588 0.33652 0.14752 0.1429 0.34113 0.22588 0.19822 0.08298 0.41949 0.08298z"/>
   <path d="m102 69.262h0.70991v3.5634h-0.70991v-2.3925l-0.87126 1.1478-0.86203-1.1386v2.3833h-0.70992v-3.5634h0.70992l0.86203 1.1386 0.86204-1.1386 9e-3 0.0046v-0.0046z"/>
   <path d="m105.15 69.266q0.3734 0 0.69609 0.1429 0.3273 0.1383 0.57162 0.38262 0.24432 0.23971 0.38261 0.56701 0.14291 0.32269 0.14291 0.69147t-0.14291 0.69147q-0.13829 0.32269-0.38261 0.56701-0.24432 0.23971-0.57162 0.38262-0.32269 0.13829-0.69609 0.13829-0.36878 0-0.69608-0.13829-0.3273-0.1429-0.57162-0.38262-0.23971-0.24432-0.38261-0.56701-0.1383-0.32269-0.1383-0.69147t0.1383-0.69147q0.1429-0.3273 0.38261-0.56701 0.24432-0.24432 0.57162-0.38262 0.3273-0.1429 0.69608-0.1429zm0 2.8443q0.22128 0 0.41489-0.08298 0.19822-0.08298 0.34113-0.22588 0.14751-0.14752 0.23049-0.33652 0.083-0.19361 0.083-0.41488t-0.083-0.41488-0.23049-0.33652q-0.14291-0.14751-0.34113-0.23049-0.19361-0.08298-0.41489-0.08298-0.22127 0-0.41949 0.08298-0.19361 0.08298-0.34113 0.23049-0.1429 0.1429-0.22588 0.33652-0.083 0.19361-0.083 0.41488t0.083 0.41488q0.083 0.189 0.22588 0.33652 0.14752 0.1429 0.34113 0.22588 0.19822 0.08298 0.41949 0.08298z"/>
   <path d="m109.7 69.262v0.70991h-0.7514v2.8535h-0.70991v-2.8535h-0.7514v-0.70991z"/>
   <path d="m112.88 69.972h-1.5028v0.71913h1.2124v0.70991h-1.2124v0.71452h1.5028v0.70991h-2.2127v-3.5634h2.2127z"/>
   <path d="m116.12 70.331q0 0.29503-0.1429 0.53935-0.14291 0.23971-0.37801 0.37801l0.52091 1.5673v0.0092h-0.74679l-0.4702-1.4244h-0.31808v1.4244h-0.70991v-3.5634h1.1755q0.22128 0 0.41489 0.08759 0.19361 0.08298 0.33652 0.23049 0.14751 0.1429 0.23049 0.33652 0.0876 0.19361 0.0876 0.41488zm-1.5351 0.378h0.37801q0.15212 0 0.26276-0.11064 0.11063-0.11064 0.11063-0.26737t-0.11063-0.26276q-0.11064-0.11064-0.26276-0.11064h-0.37801z"/>
  </g>
 </g>
 <path d="m88.565 185.47v14.098" fill="none" stroke="#000" stroke-width="2.5"/>
 <g transform="translate(-22.765 -43.659)" aria-label="x">
  <path d="m111.35 224.84-1.3143 2.0572h-1.4939l2.0735-3.2409-1.9184-3.0695h1.4858l1.1837 1.8939 1.2082-1.8939h1.4939l-1.9674 3.0776 2.0246 3.2328h-1.4858z" stroke-width=".20409"/>
 </g>
 <path d="m28.562 283.21h39.083" fill="#fff" stroke="#a1e5bc" stroke-width="2.8"/>
 <path d="m66.532 283.19h23.737" fill="none" stroke="#ffb0cf" stroke-width="2.8"/>
 <path d="m28.261 276.19v14.098" fill="none" stroke="#000" stroke-width="2.5"/>
 <g transform="translate(-90.499 -43.659)" aria-label="e">
  <path d="m120.76 312.07h-2.6613v1.2735h2.147v1.2572h-2.147v1.2654h2.6613v1.2572h-3.9185v-6.3104h3.9185z" stroke-width=".20409"/>
 </g>
 <path d="m18.621 276.19v14.098" fill="none" stroke="#000" stroke-width="2.5"/>
 <g transform="translate(-90.499 -43.659)" aria-label="x">
  <path d="m109.14 315.07-1.3143 2.0572h-1.4939l2.0735-3.2409-1.9184-3.0695h1.4858l1.1837 1.8939 1.2082-1.8939h1.4939l-1.9674 3.0776 2.0246 3.2328h-1.4858z" stroke-width=".20409"/>
 </g>
 <g transform="translate(-90.499 -43.659)" fill="none" stroke="#000" stroke-width="2.5">
  <path d="m108.29 326.9h11.037"/>
  <path d="m190.44 319.85v14.098"/>
  <path d="m181.12 319.85v14.098"/>
 </g>
 <g transform="translate(-90.499 -43.659)" aria-label="s">
  <path d="m181.12 317.13q-0.38368 0-0.72655-0.13878-0.34287-0.14694-0.6041-0.41634-0.2694-0.26939-0.41634-0.61226-0.13878-0.35103-0.13878-0.73472h1.2409q0 0.2694 0.18776 0.46532 0.19592 0.18777 0.45715 0.18777 0.2694 0 0.45716-0.18777 0.19592-0.19592 0.19592-0.46532 0-0.16327-0.0326-0.21225-0.0245-0.0571-0.0653-0.0898-0.10612-0.0898-0.31838-0.18776-0.20408-0.098-0.44082-0.20408-0.70207-0.22042-1.1021-0.57961-0.28572-0.25307-0.43266-0.57961-0.14695-0.32654-0.14695-0.71023 0-0.38368 0.13878-0.72655 0.14694-0.35103 0.41634-0.62043 0.26123-0.26939 0.6041-0.41634 0.34287-0.14694 0.72655-0.14694 0.38369 0 0.72656 0.14694 0.34286 0.14695 0.61226 0.41634 0.26123 0.2694 0.40817 0.62043 0.14695 0.34287 0.14695 0.72655h-1.2409q0-0.26939-0.19592-0.45715-0.18776-0.19593-0.45716-0.19593-0.26123 0-0.45715 0.19593-0.18776 0.18776-0.18776 0.45715 0 0.049 8e-3 0.13062 0.0163 0.0735 0.0898 0.16327 0.0816 0.0898 0.2449 0.18776 0.17144 0.098 0.48165 0.19592l0.0326 0.0163 0.0245 8e-3q0.3592 0.14695 0.64492 0.28573 0.28573 0.13878 0.49798 0.3347 0.5143 0.46532 0.5143 1.2408 0 0.38369-0.14695 0.73472-0.14694 0.34287-0.40817 0.61226-0.2694 0.2694-0.61226 0.41634-0.34287 0.13878-0.72656 0.13878z" stroke-width=".20409"/>
 </g>
 <g transform="translate(-90.499 -43.659)" aria-label="p">
  <path d="m190.53 310.82q0.39185 0 0.73472 0.15511 0.34287 0.14694 0.59594 0.40817 0.26123 0.25307 0.40817 0.59594 0.15511 0.34287 0.15511 0.73472t-0.15511 0.74288q-0.14694 0.34286-0.40817 0.6041-0.25307 0.25307-0.59594 0.40001t-0.73472 0.14694h-0.82451v2.5144h-1.2572v-6.3022h0.62859zm-0.1551 2.5552q0.26939 0 0.46532-0.18776 0.19592-0.19592 0.19592-0.47348t-0.19592-0.46532q-0.19593-0.19593-0.46532-0.19593h-0.66941v1.3225z" stroke-width=".20409"/>
 </g>
 <path d="m89.901 283.24h11.037" fill="none" stroke="#000" stroke-width="2.5"/>
 <g transform="translate(-90.499 -43.659)" stroke-width=".12202" aria-label="rfp">
  <path d="m167.39 320.6q0 0.31238-0.1513 0.57106-0.15131 0.2538-0.40023 0.40023l0.55153 1.6595v0.01h-0.79069l-0.49785-1.5082h-0.33677v1.5082h-0.75165v-3.7729h1.2446q0.23428 0 0.43928 0.0927 0.20499 0.0879 0.3563 0.24404 0.15618 0.15131 0.24404 0.3563 0.0927 0.205 0.0927 0.43927zm-1.6253 0.40023h0.40023q0.16106 0 0.2782-0.11714t0.11714-0.28309q0-0.16594-0.11714-0.2782-0.11714-0.11714-0.2782-0.11714h-0.40023z"/>
  <path d="m170.78 320.22h-1.5912v0.76141h1.2837v0.75165h-1.2837v1.5082h-0.75165v-3.7729h2.3428z"/>
  <path d="m172.96 319.47q0.23428 0 0.43927 0.0927 0.20499 0.0879 0.3563 0.24404 0.15619 0.15131 0.24404 0.3563 0.0927 0.205 0.0927 0.43927 0 0.23428-0.0927 0.44416-0.0879 0.20499-0.24404 0.36118-0.15131 0.15131-0.3563 0.23916-0.20499 0.0879-0.43927 0.0879h-0.49297v1.5033h-0.75164v-3.768h0.37582zm-0.0927 1.5277q0.16107 0 0.27821-0.11226 0.11714-0.11714 0.11714-0.28309 0-0.16594-0.11714-0.2782-0.11714-0.11714-0.27821-0.11714h-0.40023v0.79069z"/>
 </g>
 <g transform="translate(-90.499 -43.659)" stroke-width=".11525" aria-label="promoter">
  <path d="m126.72 319.6q0.22127 0 0.41488 0.0876 0.19361 0.083 0.33652 0.23049 0.14751 0.14291 0.23049 0.33652 0.0876 0.19361 0.0876 0.41488t-0.0876 0.4195q-0.083 0.19361-0.23049 0.34112-0.14291 0.14291-0.33652 0.22589-0.19361 0.083-0.41488 0.083h-0.4656v1.4198h-0.70991v-3.5588h0.35496zm-0.0876 1.4429q0.15212 0 0.26276-0.10603 0.11064-0.11063 0.11064-0.26737 0-0.15673-0.11064-0.26276-0.11064-0.11063-0.26276-0.11063h-0.37801v0.74679z"/>
  <path d="m130.83 320.67q0 0.29503-0.14291 0.53935-0.1429 0.23971-0.378 0.37801l0.52091 1.5673v9e-3h-0.74679l-0.47021-1.4244h-0.31807v1.4244h-0.70992v-3.5634h1.1755q0.22127 0 0.41488 0.0876 0.19362 0.083 0.33652 0.23049 0.14751 0.14291 0.23049 0.33652 0.0876 0.19361 0.0876 0.41488zm-1.5351 0.37801h0.378q0.15213 0 0.26276-0.11064 0.11064-0.11063 0.11064-0.26737 0-0.15673-0.11064-0.26276-0.11063-0.11063-0.26276-0.11063h-0.378z"/>
  <path d="m133.19 319.61q0.3734 0 0.69609 0.14291 0.3273 0.13829 0.57162 0.38261 0.24432 0.23971 0.38261 0.56701 0.14291 0.32269 0.14291 0.69148 0 0.36878-0.14291 0.69147-0.13829 0.32269-0.38261 0.56701-0.24432 0.23971-0.57162 0.38261-0.32269 0.1383-0.69609 0.1383-0.36878 0-0.69608-0.1383-0.3273-0.1429-0.57162-0.38261-0.23971-0.24432-0.38261-0.56701-0.1383-0.32269-0.1383-0.69147 0-0.36879 0.1383-0.69148 0.1429-0.3273 0.38261-0.56701 0.24432-0.24432 0.57162-0.38261 0.3273-0.14291 0.69608-0.14291zm0 2.8443q0.22128 0 0.41489-0.083 0.19822-0.083 0.34113-0.22588 0.14751-0.14752 0.23049-0.33652 0.083-0.19361 0.083-0.41488 0-0.22128-0.083-0.41489t-0.23049-0.33652q-0.14291-0.14751-0.34113-0.23049-0.19361-0.083-0.41489-0.083-0.22127 0-0.41949 0.083-0.19361 0.083-0.34113 0.23049-0.1429 0.14291-0.22588 0.33652-0.083 0.19361-0.083 0.41489 0 0.22127 0.083 0.41488 0.083 0.189 0.22588 0.33652 0.14752 0.1429 0.34113 0.22588 0.19822 0.083 0.41949 0.083z"/>
  <path d="m138.08 319.6h0.70992v3.5634h-0.70992v-2.3925l-0.87125 1.1478-0.86204-1.1386v2.3833h-0.70991v-3.5634h0.70991l0.86204 1.1386 0.86203-1.1386 9e-3 5e-3v-5e-3z"/>
  <path d="m141.23 319.61q0.37339 0 0.69608 0.14291 0.3273 0.13829 0.57162 0.38261 0.24432 0.23971 0.38261 0.56701 0.14291 0.32269 0.14291 0.69148 0 0.36878-0.14291 0.69147-0.13829 0.32269-0.38261 0.56701-0.24432 0.23971-0.57162 0.38261-0.32269 0.1383-0.69608 0.1383-0.36879 0-0.69609-0.1383-0.32729-0.1429-0.57162-0.38261-0.23971-0.24432-0.38261-0.56701-0.1383-0.32269-0.1383-0.69147 0-0.36879 0.1383-0.69148 0.1429-0.3273 0.38261-0.56701 0.24433-0.24432 0.57162-0.38261 0.3273-0.14291 0.69609-0.14291zm0 2.8443q0.22127 0 0.41488-0.083 0.19822-0.083 0.34113-0.22588 0.14751-0.14752 0.23049-0.33652 0.083-0.19361 0.083-0.41488 0-0.22128-0.083-0.41489t-0.23049-0.33652q-0.14291-0.14751-0.34113-0.23049-0.19361-0.083-0.41488-0.083-0.22128 0-0.4195 0.083-0.19361 0.083-0.34112 0.23049-0.14291 0.14291-0.22589 0.33652-0.083 0.19361-0.083 0.41489 0 0.22127 0.083 0.41488 0.083 0.189 0.22589 0.33652 0.14751 0.1429 0.34112 0.22588 0.19822 0.083 0.4195 0.083z"/>
  <path d="m145.78 319.6v0.70992h-0.7514v2.8535h-0.70991v-2.8535h-0.7514v-0.70992z"/>
  <path d="m148.96 320.31h-1.5028v0.71913h1.2124v0.70991h-1.2124v0.71453h1.5028v0.70991h-2.2127v-3.5634h2.2127z"/>
  <path d="m152.2 320.67q0 0.29503-0.14291 0.53935-0.1429 0.23971-0.378 0.37801l0.52091 1.5673v9e-3h-0.7468l-0.4702-1.4244h-0.31808v1.4244h-0.70991v-3.5634h1.1755q0.22127 0 0.41488 0.0876 0.19361 0.083 0.33652 0.23049 0.14751 0.14291 0.23049 0.33652 0.0876 0.19361 0.0876 0.41488zm-1.5351 0.37801h0.37801q0.15212 0 0.26276-0.11064 0.11064-0.11063 0.11064-0.26737 0-0.15673-0.11064-0.26276-0.11064-0.11063-0.26276-0.11063h-0.37801z"/>
 </g>
 <g transform="translate(-90.499 -43.659)" fill="#f55" aria-label="+">
  <path d="m148.91 347.77v-3.4986h2.3324v3.4986h3.4892v2.3324h-3.4892v3.4892h-2.3324v-3.4892h-3.4986v-2.3324z" fill="#f55" stroke-width=".47767"/>
 </g>
 <path d="m180.96 293.54h85.21c8.2197 0 14.837 6.6173 14.837 14.837s-6.6173 14.837-14.837 14.837h-85.21c-8.2197 0-14.837-6.6173-14.837-14.837s6.6173-14.837 14.837-14.837z" fill="none" stroke="#000" stroke-linecap="round" stroke-linejoin="round" stroke-width="2.5"/>
 <g transform="translate(60.439 -51.73)" stroke-width="3.2">
  <path d="m132.29 345.33h39.083" fill="#fff" stroke="#a1e5bc"/>
  <path d="m170.26 345.33h23.737" fill="none" stroke="#ffb0cf"/>
 </g>
 <path d="m192.43 286.59v14.098" fill="none" stroke="#000" stroke-width="2.5"/>
 <g transform="translate(-95.261 -21.434)" aria-label="e">
  <path d="m289.68 300.24h-2.6613v1.2735h2.147v1.2572h-2.147v1.2654h2.6613v1.2572h-3.9185v-6.3104h3.9185z" stroke-width=".20409"/>
 </g>
 <path d="m182.78 286.59v14.098" fill="none" stroke="#000" stroke-width="2.5"/>
 <g transform="translate(-95.261 -21.434)" aria-label="x">
  <path d="m278.06 303.24-1.3143 2.0572h-1.4939l2.0735-3.2409-1.9184-3.0695h1.4858l1.1837 1.8939 1.2082-1.8939h1.4939l-1.9674 3.0776 2.0246 3.2328h-1.4858z" stroke-width=".20409"/>
 </g>
 <g transform="translate(-95.261 -21.434)" fill="none" stroke="#000" stroke-width="2.5">
  <path d="m277.22 315.07h11.037"/>
  <path d="m359.36 308.02v14.098"/>
  <path d="m350.05 308.02v14.098"/>
 </g>
 <g transform="translate(-95.261 -21.434)" aria-label="s">
  <path d="m350.04 305.3q-0.38368 0-0.72655-0.13878-0.34287-0.14694-0.6041-0.41634-0.26939-0.26939-0.41634-0.61226-0.13878-0.35103-0.13878-0.73472h1.2409q0 0.2694 0.18776 0.46532 0.19592 0.18776 0.45715 0.18776 0.2694 0 0.45716-0.18776 0.19592-0.19592 0.19592-0.46532 0-0.16327-0.0326-0.21225-0.0245-0.0571-0.0653-0.0898-0.10612-0.0898-0.31837-0.18776-0.20409-0.098-0.44083-0.20409-0.70207-0.22041-1.1021-0.57961-0.28572-0.25306-0.43266-0.5796-0.14695-0.32654-0.14695-0.71023t0.13878-0.72655q0.14695-0.35103 0.41634-0.62043 0.26123-0.2694 0.6041-0.41634t0.72655-0.14694q0.38369 0 0.72656 0.14694 0.34286 0.14694 0.61226 0.41634 0.26123 0.2694 0.40817 0.62043 0.14695 0.34286 0.14695 0.72655h-1.2409q0-0.2694-0.19592-0.45716-0.18776-0.19592-0.45716-0.19592-0.26123 0-0.45715 0.19592-0.18776 0.18776-0.18776 0.45716 0 0.049 8e-3 0.13062 0.0163 0.0735 0.0898 0.16327 0.0816 0.0898 0.2449 0.18776 0.17144 0.098 0.48165 0.19592l0.0326 0.0163 0.0245 8e-3q0.35919 0.14695 0.64491 0.28572 0.28573 0.13878 0.49798 0.33471 0.5143 0.46532 0.5143 1.2408 0 0.38369-0.14695 0.73472-0.14694 0.34287-0.40817 0.61226-0.2694 0.2694-0.61226 0.41634-0.34287 0.13878-0.72656 0.13878z" stroke-width=".20409"/>
 </g>
 <g transform="translate(-95.261 -21.434)" aria-label="p">
  <path d="m359.46 298.99q0.39185 0 0.73472 0.15511 0.34287 0.14694 0.59593 0.40817 0.26124 0.25307 0.40818 0.59594 0.15511 0.34287 0.15511 0.73471 0 0.39185-0.15511 0.74288-0.14694 0.34287-0.40818 0.6041-0.25306 0.25307-0.59593 0.40002-0.34287 0.14694-0.73472 0.14694h-0.82451v2.5144h-1.2572v-6.3022h0.62859zm-0.1551 2.5552q0.26939 0 0.46532-0.18776 0.19592-0.19593 0.19592-0.47349 0-0.27755-0.19592-0.46532-0.19593-0.19592-0.46532-0.19592h-0.66941v1.3225z" stroke-width=".20409"/>
 </g>
 <path d="m254.06 293.64h11.037" fill="none" stroke="#000" stroke-width="2.5"/>
 <g transform="translate(-95.261 -21.434)" stroke-width=".11525" aria-label="promoter-rfp">
  <path d="m300.93 307.77q0.22127 0 0.41488 0.0876 0.19361 0.083 0.33652 0.23049 0.14751 0.1429 0.23049 0.33652 0.0876 0.19361 0.0876 0.41488t-0.0876 0.4195q-0.083 0.19361-0.23049 0.34112-0.14291 0.14291-0.33652 0.22588-0.19361 0.083-0.41488 0.083h-0.4656v1.4198h-0.70991v-3.5588h0.35496zm-0.0876 1.4429q0.15212 0 0.26276-0.10603 0.11063-0.11063 0.11063-0.26737 0-0.15673-0.11063-0.26276-0.11064-0.11063-0.26276-0.11063h-0.37801v0.74679z"/>
  <path d="m305.04 308.84q0 0.29503-0.14291 0.53935-0.1429 0.23971-0.378 0.37801l0.52091 1.5673v9e-3h-0.7468l-0.4702-1.4244h-0.31808v1.4244h-0.70991v-3.5634h1.1755q0.22127 0 0.41488 0.0876 0.19361 0.083 0.33652 0.23049 0.14751 0.1429 0.23049 0.33652 0.0876 0.19361 0.0876 0.41488zm-1.5351 0.37801h0.37801q0.15212 0 0.26276-0.11064 0.11064-0.11063 0.11064-0.26737 0-0.15673-0.11064-0.26276-0.11064-0.11063-0.26276-0.11063h-0.37801z"/>
  <path d="m307.41 307.78q0.3734 0 0.69609 0.14291 0.32729 0.13829 0.57161 0.38261 0.24432 0.23971 0.38262 0.56701 0.1429 0.32269 0.1429 0.69147 0 0.36879-0.1429 0.69148-0.1383 0.32269-0.38262 0.56701-0.24432 0.23971-0.57161 0.38261-0.32269 0.1383-0.69609 0.1383-0.36878 0-0.69608-0.1383-0.3273-0.1429-0.57162-0.38261-0.23971-0.24432-0.38261-0.56701-0.1383-0.32269-0.1383-0.69148 0-0.36878 0.1383-0.69147 0.1429-0.3273 0.38261-0.56701 0.24432-0.24432 0.57162-0.38261 0.3273-0.14291 0.69608-0.14291zm0 2.8443q0.22127 0 0.41489-0.083 0.19822-0.083 0.34112-0.22588 0.14752-0.14752 0.23049-0.33652 0.083-0.19361 0.083-0.41489 0-0.22127-0.083-0.41488t-0.23049-0.33652q-0.1429-0.14751-0.34112-0.23049-0.19362-0.083-0.41489-0.083t-0.41949 0.083q-0.19361 0.083-0.34113 0.23049-0.1429 0.14291-0.22588 0.33652-0.083 0.19361-0.083 0.41488 0 0.22128 0.083 0.41489 0.083 0.189 0.22588 0.33652 0.14752 0.1429 0.34113 0.22588 0.19822 0.083 0.41949 0.083z"/>
  <path d="m312.3 307.77h0.70991v3.5634h-0.70991v-2.3925l-0.87126 1.1478-0.86203-1.1386v2.3833h-0.70992v-3.5634h0.70992l0.86203 1.1386 0.86204-1.1386 9e-3 5e-3v-5e-3z"/>
  <path d="m315.45 307.78q0.3734 0 0.69609 0.14291 0.3273 0.13829 0.57162 0.38261 0.24432 0.23971 0.38261 0.56701 0.14291 0.32269 0.14291 0.69147 0 0.36879-0.14291 0.69148-0.13829 0.32269-0.38261 0.56701-0.24432 0.23971-0.57162 0.38261-0.32269 0.1383-0.69609 0.1383-0.36878 0-0.69608-0.1383-0.3273-0.1429-0.57162-0.38261-0.23971-0.24432-0.38261-0.56701-0.1383-0.32269-0.1383-0.69148 0-0.36878 0.1383-0.69147 0.1429-0.3273 0.38261-0.56701 0.24432-0.24432 0.57162-0.38261 0.3273-0.14291 0.69608-0.14291zm0 2.8443q0.22128 0 0.41489-0.083 0.19822-0.083 0.34113-0.22588 0.14751-0.14752 0.23049-0.33652 0.083-0.19361 0.083-0.41489 0-0.22127-0.083-0.41488t-0.23049-0.33652q-0.14291-0.14751-0.34113-0.23049-0.19361-0.083-0.41489-0.083-0.22127 0-0.41949 0.083-0.19361 0.083-0.34113 0.23049-0.1429 0.14291-0.22588 0.33652-0.083 0.19361-0.083 0.41488 0 0.22128 0.083 0.41489 0.083 0.189 0.22588 0.33652 0.14752 0.1429 0.34113 0.22588 0.19822 0.083 0.41949 0.083z"/>
  <path d="m320 307.77v0.70992h-0.7514v2.8535h-0.70991v-2.8535h-0.7514v-0.70992z"/>
  <path d="m323.18 308.48h-1.5028v0.71913h1.2124v0.70991h-1.2124v0.71452h1.5028v0.70992h-2.2127v-3.5634h2.2127z"/>
  <path d="m326.42 308.84q0 0.29503-0.1429 0.53935-0.14291 0.23971-0.37801 0.37801l0.52091 1.5673v9e-3h-0.74679l-0.4702-1.4244h-0.31808v1.4244h-0.70991v-3.5634h1.1755q0.22128 0 0.41489 0.0876 0.19361 0.083 0.33652 0.23049 0.14751 0.1429 0.23049 0.33652 0.0876 0.19361 0.0876 0.41488zm-1.5351 0.37801h0.37801q0.15212 0 0.26276-0.11064 0.11063-0.11063 0.11063-0.26737 0-0.15673-0.11063-0.26276-0.11064-0.11063-0.26276-0.11063h-0.37801z"/>
  <path d="m329.62 309.54v0.54396h-2.1067v-0.54396z"/>
  <path d="m332.97 308.84q0 0.29503-0.14291 0.53935-0.1429 0.23971-0.378 0.37801l0.52091 1.5673v9e-3h-0.74679l-0.47021-1.4244h-0.31807v1.4244h-0.70992v-3.5634h1.1755q0.22127 0 0.41488 0.0876 0.19362 0.083 0.33652 0.23049 0.14751 0.1429 0.23049 0.33652 0.0876 0.19361 0.0876 0.41488zm-1.5351 0.37801h0.378q0.15213 0 0.26276-0.11064 0.11064-0.11063 0.11064-0.26737 0-0.15673-0.11064-0.26276-0.11063-0.11063-0.26276-0.11063h-0.378z"/>
  <path d="m336.17 308.48h-1.5028v0.71913h1.2124v0.70991h-1.2124v1.4244h-0.70991v-3.5634h2.2127z"/>
  <path d="m338.23 307.77q0.22127 0 0.41488 0.0876 0.19361 0.083 0.33652 0.23049 0.14751 0.1429 0.23049 0.33652 0.0876 0.19361 0.0876 0.41488t-0.0876 0.4195q-0.083 0.19361-0.23049 0.34112-0.14291 0.14291-0.33652 0.22588-0.19361 0.083-0.41488 0.083h-0.4656v1.4198h-0.70991v-3.5588h0.35496zm-0.0876 1.4429q0.15212 0 0.26276-0.10603 0.11064-0.11063 0.11064-0.26737 0-0.15673-0.11064-0.26276-0.11064-0.11063-0.26276-0.11063h-0.37801v0.74679z"/>
 </g>
 <g transform="translate(-95.261 -21.434)" stroke-width=".15411" aria-label="pCambia">
  <path d="m307.51 352.36v0.3612q0.22274-0.22274 0.4816-0.33411t0.55384-0.11137q0.64114 0 1.0896 0.48461 0.44849 0.48462 0.44849 1.2431 0 0.73144-0.46354 1.2251-0.46354 0.49063-1.0987 0.49063-0.28294 0-0.52675-0.0993-0.24381-0.10234-0.48461-0.3311v1.5441h-0.81572v-4.4729zm0.86387 0.67425q-0.38829 0-0.64414 0.26488t-0.25585 0.6923q0 0.43645 0.25585 0.70736 0.25585 0.26789 0.64414 0.26789 0.37625 0 0.6321-0.27391 0.25887-0.27392 0.25887-0.69833 0-0.4214-0.25285-0.68929-0.25284-0.2709-0.63812-0.2709z"/>
  <path d="m313.18 354.66q0.23426 0 0.44385-0.074 0.21576-0.074 0.39453-0.20343l0.90002 0.45617q-0.32056 0.36371-0.77057 0.5733-0.44384 0.2096-0.96783 0.2096-0.48699 0-0.91234-0.18494-0.42536-0.1911-0.74591-0.51165-0.31439-0.32672-0.49933-0.75824-0.18493-0.43151-0.18493-0.92468 0-0.49316 0.18493-0.92467 0.18494-0.43768 0.49933-0.75824 0.32055-0.32672 0.74591-0.51165 0.42535-0.1911 0.91234-0.1911 0.52399 0 0.96783 0.20959 0.45001 0.20959 0.77057 0.5733l-0.90002 0.45617q-0.17877-0.12945-0.39453-0.20342-0.20959-0.074-0.44385-0.074-0.28973 0-0.54247 0.11096-0.25275 0.11096-0.44385 0.30206-0.18493 0.1911-0.29589 0.45001-0.11097 0.25275-0.11713 0.54248v0.0306q6e-3 0.28974 0.11713 0.54865 0.11096 0.25274 0.29589 0.44384 0.1911 0.1911 0.44385 0.30206 0.25274 0.11096 0.54247 0.11096z"/>
  <path d="m318.6 355.62-0.32672-0.87536h-1.3747l-0.33289 0.87536h-1.0171l1.8062-4.7652h0.46234l1.8 4.7652zm-1.3808-1.7261h0.72741l-0.35754-0.9555h-6e-3z"/>
  <path d="m323.88 350.85h0.94934v4.7652h-0.94934v-3.1994l-1.1651 1.535-1.1528-1.5226v3.187h-0.94934v-4.7652h0.94934l1.1528 1.5226 1.1528-1.5226 0.0123 6e-3z"/>
  <path d="m328.23 353.16q0.17877 0.0678 0.32672 0.1911 0.14795 0.11713 0.25275 0.27124 0.11096 0.15411 0.1726 0.33905 0.0616 0.18493 0.0616 0.38836 0 0.26508-0.1048 0.49933-0.0986 0.22809-0.27124 0.40069-0.1726 0.17261-0.40686 0.27124-0.22808 0.0986-0.49316 0.0986h-2.0035v-4.7652h1.7199q0.26507 0 0.49316 0.1048 0.23425 0.0986 0.40685 0.27124 0.17261 0.1726 0.27124 0.40686 0.1048 0.22808 0.1048 0.49316 0 0.31439-0.14795 0.58563-0.14178 0.27124-0.3822 0.44384zm-1.5165-0.59796h0.49933q0.17877 0 0.30822-0.12329 0.12946-0.12945 0.12946-0.30822t-0.12946-0.30823q-0.12945-0.12945-0.30822-0.12945h-0.49933zm0.71508 2.2192q0.17878 0 0.30823-0.12329 0.12945-0.12946 0.12945-0.30823t-0.12945-0.30822q-0.12945-0.12946-0.30823-0.12946h-0.71508v0.8692h0.43768z"/>
  <path d="m331.12 355.62h-0.94933v-4.7652h0.94933z"/>
  <path d="m335.22 355.62-0.32672-0.87536h-1.3747l-0.33288 0.87536h-1.0172l1.8062-4.7652h0.46234l1.8 4.7652zm-1.3808-1.7261h0.72741l-0.35754-0.9555h-6e-3z"/>
 </g>
 <path d="m190.71 85.221v-28.386" fill="none" marker-start="url(#TriangleInS-44)" stroke="#000" stroke-width="2.5"/>
 <g transform="matrix(1.9471 0 0 1.9471 -2.9121 -482.17)" stroke-width=".12202" aria-label="eco-ri, Pst-I">
  <path d="m49.966 373.46h-1.5911v0.7614h1.2837v0.75165h-1.2837v0.75653h1.5911v0.75165h-2.3428v-3.7729h2.3428z"/>
  <path d="m53.38 374.43-0.54099 0.2979q-0.15253-0.15967-0.30267-0.22164-0.14776-0.062-0.34795-0.062-0.36463 0-0.59104 0.21925-0.22402 0.21688-0.22402 0.55768 0 0.33126 0.21687 0.54099 0.21687 0.20972 0.56959 0.20972 0.43613 0 0.67922-0.2979l0.51239 0.35033q-0.41706 0.54099-1.1773 0.54099-0.68398 0-1.0724-0.40515-0.38608-0.40514-0.38608-0.94852 0-0.37654 0.18827-0.69351t0.52431-0.49809q0.33842-0.18113 0.75548-0.18113 0.38608 0 0.69352 0.15491 0.30743 0.15253 0.50286 0.43613z"/>
  <path d="m55.187 373.84q0.36702 0 0.68875 0.18351 0.32412 0.18351 0.50524 0.49809 0.18112 0.31459 0.18112 0.67922 0 0.36701-0.18351 0.68636-0.18112 0.31935-0.49571 0.50048-0.31458 0.17874-0.69352 0.17874-0.55767 0-0.95329-0.39561-0.39323-0.398-0.39323-0.96521 0-0.60772 0.44566-1.0129 0.39085-0.35272 0.89847-0.35272zm0.0095 0.61249q-0.30267 0-0.50524 0.2121-0.20019 0.20973-0.20019 0.53861 0 0.33842 0.19781 0.54814 0.20019 0.20972 0.50524 0.20972t0.50762-0.2121q0.20257-0.21211 0.20257-0.54576t-0.20019-0.54099q-0.19781-0.20972-0.50762-0.20972z"/>
  <path d="m59.651 374.58v0.57594h-2.2305v-0.57594z"/>
  <path d="m63.198 373.84q0 0.31237-0.1513 0.57106-0.15131 0.2538-0.40023 0.40022l0.55153 1.6595v0.01h-0.79069l-0.49784-1.5082h-0.33678v1.5082h-0.75165v-3.7729h1.2446q0.23428 0 0.43927 0.0927 0.205 0.0879 0.3563 0.24405 0.15619 0.1513 0.24404 0.3563 0.09274 0.20499 0.09274 0.43927zm-1.6253 0.40023h0.40023q0.16107 0 0.27821-0.11714t0.11714-0.28309-0.11714-0.27821q-0.11714-0.11714-0.27821-0.11714h-0.40023z"/>
  <path d="m64.976 376.48h-0.75165v-3.7729h0.75165z"/>
  <path d="m65.811 376.84 0.09274-0.39535q-0.0244-0.01-0.04393-0.0244-0.01464-0.0147-0.03417-0.0293-0.08785-0.0927-0.08785-0.21964 0-0.1269 0.08785-0.21475 0.09274-0.0927 0.21964-0.0927t0.21964 0.0927q0.08785 0.0879 0.08785 0.21475 0 0.12691-0.08785 0.21964z"/>
  <path d="m70.604 372.71q0.23428 0 0.43927 0.0927 0.205 0.0879 0.3563 0.24405 0.15619 0.1513 0.24404 0.3563 0.09274 0.20499 0.09274 0.43927t-0.09274 0.44416q-0.08785 0.20499-0.24404 0.36118-0.1513 0.1513-0.3563 0.23916-0.205 0.0879-0.43927 0.0879h-0.49296v1.5033h-0.75165v-3.768h0.37582zm-0.09274 1.5277q0.16107 0 0.27821-0.11226 0.11714-0.11714 0.11714-0.28309t-0.11714-0.27821q-0.11714-0.11714-0.27821-0.11714h-0.40023v0.7907z"/>
  <path d="m74.059 374.27-0.40276 0.40276q-0.24547-0.24308-0.44566-0.24308-0.10963 0-0.17159 0.0477-0.06196 0.0453-0.06196 0.11439 0 0.0524 0.03813 0.0977 0.04051 0.0429 0.19542 0.11916l0.23832 0.11916q0.37655 0.18589 0.51716 0.37893t0.14061 0.45281q0 0.34557-0.255 0.57674-0.25262 0.23117-0.67922 0.23117-0.56721 0-0.90562-0.44328l0.40038-0.43613q0.11439 0.13346 0.26692 0.21688 0.15491 0.081 0.27407 0.081 0.12869 0 0.20734-0.062t0.07865-0.14299q0-0.15014-0.2836-0.29314l-0.21926-0.10962q-0.62917-0.31697-0.62917-0.79362 0-0.30743 0.23594-0.5243 0.23832-0.21926 0.60772-0.21926 0.25262 0 0.47426 0.11201 0.22402 0.10963 0.37893 0.31697z"/>
  <path d="m74.696 372.95h0.64824v0.95567h0.38608v0.56006h-0.38608v2.0329h-0.64824v-2.0329h-0.33365v-0.56006h0.33365z"/>
  <path d="m78.641 374.58v0.57594h-2.2305v-0.57594z"/>
  <path d="m80.571 376.48h-0.75165v-3.7729h0.75165z"/>
 </g>
 <path d="m66.782 258.76 25.9-26.837" fill="none" marker-start="url(#marker2062)" stroke="#000" stroke-width="2.5"/>
 <g fill="#f55">
  <path d="m114.6 306.13v2.5h35.34v-2.5z" color="#000000" color-rendering="auto" dominant-baseline="auto" image-rendering="auto" shape-rendering="auto" solid-color="#000000" style="font-feature-settings:normal;font-variant-alternates:normal;font-variant-caps:normal;font-variant-ligatures:normal;font-variant-numeric:normal;font-variant-position:normal;isolation:auto;mix-blend-mode:normal;shape-padding:0;text-decoration-color:#000000;text-decoration-line:none;text-decoration-style:solid;text-indent:0;text-orientation:mixed;text-transform:none;white-space:normal"/>
  <path d="m152.83 307.38-4.325 2.5v-5z" fill-rule="evenodd" stroke="#f55" stroke-width=".5pt"/>
 </g>
</svg>
