<?xml version="1.0" encoding="utf-8"?>
<!-- Generator: Adobe Illustrator 22.0.0, SVG Export Plug-In . SVG Version: 6.00 Build 0)  -->
<svg version="1.1" id="Layer_1" xmlns="http://www.w3.org/2000/svg" xmlns:xlink="http://www.w3.org/1999/xlink" x="0px" y="0px"
	 viewBox="0 0 732.1 448.3" style="enable-background:new 0 0 732.1 448.3;" xml:space="preserve">
<style type="text/css">
	.st0{fill:none;stroke:#174C56;stroke-linecap:round;stroke-miterlimit:10;}
	.st1{opacity:0.2;}
	.st2{clip-path:url(#SVGID_2_);fill:#C5C7C9;}
	.st3{clip-path:url(#SVGID_2_);fill:#174C56;stroke:#174C56;stroke-miterlimit:10;}
	.st4{fill:#F79323;}
	.st5{fill:none;stroke:#174C56;stroke-miterlimit:10;}
	.st6{fill:#174C56;stroke:#174C56;stroke-miterlimit:10;}
	.st7{fill:#174C56;stroke:#174C56;stroke-linecap:round;stroke-miterlimit:10;}
	.st8{clip-path:url(#SVGID_4_);fill:#C5C7C9;}
	.st9{clip-path:url(#SVGID_4_);fill:#174C56;stroke:#174C56;stroke-miterlimit:10;}
	.st10{fill:#5683B0;}
	.st11{clip-path:url(#SVGID_6_);fill:#C5C7C9;}
	.st12{clip-path:url(#SVGID_6_);fill:#174C56;stroke:#174C56;stroke-miterlimit:10;}
	.st13{fill:#FFC600;}
	.st14{fill:none;}
	.st15{fill:#174C56;stroke:#174C56;stroke-width:0.25;stroke-miterlimit:10;}
	.st16{font-family:'Helvetica';}
	.st17{font-size:12px;}
	.st18{fill:#174C56;stroke:#174C56;stroke-width:0.75;stroke-miterlimit:10;}
	.st19{font-size:15px;}
	.st20{fill:none;stroke:#174C56;stroke-width:4;stroke-miterlimit:10;}
	.st21{fill:#174C56;stroke:#174C56;stroke-width:0.5;stroke-miterlimit:10;}
	.st22{font-size:13px;}
	.st23{fill:#FFFFFF;stroke:#174C56;stroke-linecap:round;stroke-miterlimit:10;}
	.st24{clip-path:url(#SVGID_8_);fill:#C5C7C9;}
	.st25{clip-path:url(#SVGID_8_);fill:#174C56;stroke:#174C56;stroke-miterlimit:10;}
	.st26{clip-path:url(#SVGID_10_);fill:#C5C7C9;}
	.st27{clip-path:url(#SVGID_10_);fill:#174C56;stroke:#174C56;stroke-miterlimit:10;}
	.st28{clip-path:url(#SVGID_12_);fill:#C5C7C9;}
	.st29{clip-path:url(#SVGID_12_);fill:#174C56;stroke:#174C56;stroke-miterlimit:10;}
	.st30{clip-path:url(#SVGID_14_);fill:#C5C7C9;}
	.st31{clip-path:url(#SVGID_14_);fill:#174C56;stroke:#174C56;stroke-miterlimit:10;}
	.st32{fill:#174C56;}
	.st33{fill:#E6E7E8;}
	.st34{stroke:#000000;stroke-linecap:round;stroke-miterlimit:10;}
	.st35{clip-path:url(#SVGID_18_);fill:#C5C7C9;}
	.st36{clip-path:url(#SVGID_18_);fill:#174C56;stroke:#174C56;stroke-miterlimit:10;}
	.st37{fill:#8A0061;}
	.st38{fill:#D44100;stroke:#DF2B00;stroke-miterlimit:10;}
</style>
<path class="st0" d="M294.8,177.5H82c-18.4,0-33.2-14.9-33.2-33.2V39.6C48.8,21.2,63.6,6.4,82,6.4h212.8c18.4,0,33.2,14.9,33.2,33.2
	v104.7C328,162.6,313.2,177.5,294.8,177.5z"/>
<g class="st1">
	<g>
		<defs>
			<polyline id="SVGID_1_" points="110.4,104.1 85.8,104.1 85.8,170.8 110.4,170.8 			"/>
		</defs>
		<clipPath id="SVGID_2_">
			<use xlink:href="#SVGID_1_"  style="overflow:visible;"/>
		</clipPath>
		<path class="st2" d="M86,104.2v29.3c0,0,4.7,37.1,12.2,37.1c7.5,0,12-36.3,12-36.3v-30.1H86z"/>
		<path class="st3" d="M86,104.2v29.3c0,0,4.7,37.1,12.2,37.1c7.5,0,12-36.3,12-36.3v-30.1H86z"/>
	</g>
</g>
<path class="st4" d="M106.3,149.7c-1.9,8.4-5.8,18.3-8.2,18.3c-2.4,0-5.4-8.4-8-18.3H106.3z"/>
<line class="st5" x1="86" y1="115.6" x2="91.8" y2="115.6"/>
<line class="st5" x1="86" y1="118.4" x2="91.8" y2="118.4"/>
<line class="st6" x1="86" y1="121.2" x2="91.8" y2="121.2"/>
<line class="st5" x1="86" y1="124.1" x2="91.8" y2="124.1"/>
<line class="st5" x1="86" y1="126.9" x2="91.8" y2="126.9"/>
<rect x="82.6" y="98.1" class="st7" width="31.2" height="6"/>
<g class="st1">
	<g>
		<defs>
			<polyline id="SVGID_3_" points="195,103.9 170.4,103.9 170.4,170.6 195,170.6 			"/>
		</defs>
		<clipPath id="SVGID_4_">
			<use xlink:href="#SVGID_3_"  style="overflow:visible;"/>
		</clipPath>
		<path class="st8" d="M170.6,104.1v29.3c0,0,4.7,37.1,12.2,37.1c7.5,0,12-36.3,12-36.3v-30.1H170.6z"/>
		<path class="st9" d="M170.6,104.1v29.3c0,0,4.7,37.1,12.2,37.1c7.5,0,12-36.3,12-36.3v-30.1H170.6z"/>
	</g>
</g>
<path class="st10" d="M190.9,149.4c-1.9,8.4-5.8,18.3-8.2,18.3c-2.4,0-5.4-8.4-8-18.3H190.9z"/>
<line class="st5" x1="170.6" y1="115.3" x2="176.4" y2="115.3"/>
<line class="st5" x1="170.6" y1="118.1" x2="176.4" y2="118.1"/>
<line class="st6" x1="170.6" y1="120.9" x2="176.4" y2="120.9"/>
<line class="st5" x1="170.6" y1="123.7" x2="176.4" y2="123.7"/>
<line class="st5" x1="170.6" y1="126.6" x2="176.4" y2="126.6"/>
<rect x="167.2" y="97.9" class="st7" width="31.2" height="6"/>
<g class="st1">
	<g>
		<defs>
			<polyline id="SVGID_5_" points="278.6,103.7 254,103.7 254,170.4 278.6,170.4 			"/>
		</defs>
		<clipPath id="SVGID_6_">
			<use xlink:href="#SVGID_5_"  style="overflow:visible;"/>
		</clipPath>
		<path class="st11" d="M254.2,103.9v29.3c0,0,4.7,37.1,12.2,37.1c7.5,0,12-36.3,12-36.3v-30.1H254.2z"/>
		<path class="st12" d="M254.2,103.9v29.3c0,0,4.7,37.1,12.2,37.1c7.5,0,12-36.3,12-36.3v-30.1H254.2z"/>
	</g>
</g>
<path class="st13" d="M274.5,149.4c-1.9,8.4-5.8,18.3-8.2,18.3c-2.4,0-5.4-8.4-8-18.3H274.5z"/>
<line class="st5" x1="254.2" y1="115.3" x2="260" y2="115.3"/>
<line class="st5" x1="254.2" y1="118.1" x2="260" y2="118.1"/>
<line class="st6" x1="254.2" y1="120.9" x2="260" y2="120.9"/>
<line class="st5" x1="254.2" y1="123.7" x2="260" y2="123.7"/>
<line class="st5" x1="254.2" y1="126.6" x2="260" y2="126.6"/>
<rect x="250.8" y="97.7" class="st7" width="31.2" height="6"/>
<polygon class="st14" points="74.9,75.1 118.8,28.7 138.2,48.5 94.3,94.9 "/>
<text transform="matrix(0.6947 -0.7192 0.6947 0.7193 81.6493 82.0294)"><tspan x="0" y="0" class="st15 st16 st17">Aptamer 1 </tspan><tspan x="0.1" y="14.4" class="st15 st16 st17">on beads</tspan></text>
<text transform="matrix(0.6513 -0.6758 0.6955 0.7185 164.9335 75.0299)"><tspan x="0" y="0" class="st15 st16 st17">Aptamer 2</tspan><tspan x="0" y="14.4" class="st15 st16 st17">with trigger</tspan><tspan x="0" y="28.8" class="st15 st16 st17">extension</tspan></text>
<text transform="matrix(0.6963 -0.7208 0.6947 0.7193 254.8309 82.8726)"><tspan x="0" y="0" class="st15 st16 st17">Lysate +</tspan><tspan x="0" y="14.4" class="st15 st16 st17">Toehold</tspan></text>
<text transform="matrix(1 0 0 1 7.3945 331.2941)" class="st18 st16 st19">Sample</text>
<text transform="matrix(1 0 0 1 13.6476 348.9083)"><tspan x="0" y="0" class="st15 st16 st19">Blood</tspan><tspan x="-2.9" y="18" class="st15 st16 st19">Serum</tspan><tspan x="-0.8" y="36" class="st15 st16 st19">Water</tspan></text>
<path class="st20" d="M42.8,164.1"/>
<text transform="matrix(1 0 0 1 151.6535 27.6296)" class="st21 st16 st22">Lyophilized</text>
<path class="st23" d="M16,297.3"/>
<line class="st7" x1="53" y1="23.4" x2="150.8" y2="23.4"/>
<line class="st7" x1="217.8" y1="23.4" x2="322.8" y2="23.4"/>
<g class="st1">
	<g>
		<defs>
			<polyline id="SVGID_7_" points="106.6,219.3 89.7,219.3 89.7,266 106.6,266 			"/>
		</defs>
		<clipPath id="SVGID_8_">
			<use xlink:href="#SVGID_7_"  style="overflow:visible;"/>
		</clipPath>
		<path class="st24" d="M89.8,219.4v20.6c0,0,3.2,26,8.4,26c5.2,0,8.2-25.4,8.2-25.4v-21.1H89.8z"/>
		<path class="st25" d="M89.8,219.4v20.6c0,0,3.2,26,8.4,26c5.2,0,8.2-25.4,8.2-25.4v-21.1H89.8z"/>
	</g>
</g>
<path class="st4" d="M103.8,251.3c-1.3,5.9-4,12.8-5.6,12.8c-1.7,0-3.7-5.9-5.5-12.8H103.8z"/>
<line class="st5" x1="89.8" y1="227.3" x2="93.8" y2="227.3"/>
<line class="st5" x1="89.8" y1="229.3" x2="93.8" y2="229.3"/>
<line class="st6" x1="89.8" y1="231.3" x2="93.8" y2="231.3"/>
<line class="st5" x1="89.8" y1="233.3" x2="93.8" y2="233.3"/>
<line class="st5" x1="89.8" y1="235.3" x2="93.8" y2="235.3"/>
<rect x="87.5" y="215.1" class="st7" width="21.5" height="4.2"/>
<g class="st1">
	<g>
		<defs>
			<polyline id="SVGID_9_" points="191.2,219.3 174.3,219.3 174.3,266 191.2,266 			"/>
		</defs>
		<clipPath id="SVGID_10_">
			<use xlink:href="#SVGID_9_"  style="overflow:visible;"/>
		</clipPath>
		<path class="st26" d="M174.4,219.4v20.6c0,0,3.2,26,8.4,26c5.2,0,8.2-25.4,8.2-25.4v-21.1H174.4z"/>
		<path class="st27" d="M174.4,219.4v20.6c0,0,3.2,26,8.4,26c5.2,0,8.2-25.4,8.2-25.4v-21.1H174.4z"/>
	</g>
</g>
<path class="st10" d="M188.4,251.2c-1.3,5.9-4,12.8-5.6,12.8c-1.7,0-3.7-5.9-5.5-12.8H188.4z"/>
<line class="st5" x1="174.4" y1="227.2" x2="178.4" y2="227.2"/>
<line class="st5" x1="174.4" y1="229.2" x2="178.4" y2="229.2"/>
<line class="st6" x1="174.4" y1="231.2" x2="178.4" y2="231.2"/>
<line class="st5" x1="174.4" y1="233.2" x2="178.4" y2="233.2"/>
<line class="st5" x1="174.4" y1="235.2" x2="178.4" y2="235.2"/>
<rect x="172.1" y="215.1" class="st7" width="21.5" height="4.2"/>
<g class="st1">
	<g>
		<defs>
			<polyline id="SVGID_11_" points="274.5,219.3 257.6,219.3 257.6,266 274.5,266 			"/>
		</defs>
		<clipPath id="SVGID_12_">
			<use xlink:href="#SVGID_11_"  style="overflow:visible;"/>
		</clipPath>
		<path class="st28" d="M257.8,219.4v20.6c0,0,3.2,26,8.4,26c5.2,0,8.2-25.4,8.2-25.4v-21.1H257.8z"/>
		<path class="st29" d="M257.8,219.4v20.6c0,0,3.2,26,8.4,26c5.2,0,8.2-25.4,8.2-25.4v-21.1H257.8z"/>
	</g>
</g>
<path class="st13" d="M271.7,251.3c-1.3,5.9-4,12.8-5.6,12.8c-1.7,0-3.7-5.9-5.5-12.8H271.7z"/>
<line class="st5" x1="257.8" y1="227.3" x2="261.7" y2="227.3"/>
<line class="st5" x1="257.8" y1="229.3" x2="261.7" y2="229.3"/>
<line class="st6" x1="257.8" y1="231.3" x2="261.7" y2="231.3"/>
<line class="st5" x1="257.8" y1="233.3" x2="261.7" y2="233.3"/>
<line class="st5" x1="257.8" y1="235.3" x2="261.7" y2="235.3"/>
<rect x="255.4" y="215.1" class="st7" width="21.5" height="4.2"/>
<g class="st1">
	<g>
		<defs>
			<polyline id="SVGID_13_" points="496.7,316 450.6,316 450.6,428.2 496.7,428.2 			"/>
		</defs>
		<clipPath id="SVGID_14_">
			<use xlink:href="#SVGID_13_"  style="overflow:visible;"/>
		</clipPath>
		<path class="st30" d="M450.9,316.2v49.3c0,0,8.8,62.4,23,62.4c14.1,0,22.5-61,22.5-61v-50.7H450.9z"/>
		<path class="st31" d="M450.9,316.2v49.3c0,0,8.8,62.4,23,62.4c14.1,0,22.5-61,22.5-61v-50.7H450.9z"/>
	</g>
</g>
<path class="st32" d="M444.4,311.9v2.8c-12.7,1.8-18.5-1.6-18.5-1.6l0.8-1l-4-2.1l7.3-8.7l-33.5-17.8l-7.3,8.7l-4-2.1l-2.9,3.5
	l41.5,22l1.1-1.4l-0.6,0.7c7.6,3.8,20.1,1.9,20.1,1.9v0.6h52.4v-5.5H444.4z"/>
<path class="st13" d="M491.9,363.5c-4.4,27.5-13.5,60.1-18.9,60.1c-5.5,0-12-27.7-17.7-60.3L491.9,363.5z"/>
<g>
	<g>
		<defs>
			<path id="SVGID_15_" d="M453.2,358.2"/>
		</defs>
		<clipPath id="SVGID_16_">
			<use xlink:href="#SVGID_15_"  style="overflow:visible;"/>
		</clipPath>
	</g>
</g>
<line class="st33" x1="450.9" y1="335.4" x2="461.8" y2="335.4"/>
<line class="st5" x1="450.9" y1="335.4" x2="461.8" y2="335.4"/>
<line class="st33" x1="450.9" y1="340.1" x2="461.8" y2="340.1"/>
<line class="st5" x1="450.9" y1="340.1" x2="461.8" y2="340.1"/>
<line class="st33" x1="450.9" y1="344.9" x2="461.8" y2="344.9"/>
<line class="st6" x1="450.9" y1="344.9" x2="461.8" y2="344.9"/>
<line class="st33" x1="450.9" y1="349.6" x2="461.8" y2="349.6"/>
<line class="st5" x1="450.9" y1="349.6" x2="461.8" y2="349.6"/>
<line class="st33" x1="450.9" y1="354.4" x2="461.8" y2="354.4"/>
<line class="st5" x1="450.9" y1="354.4" x2="461.8" y2="354.4"/>
<circle class="st34" cx="94.9" cy="154.2" r="2.3"/>
<circle class="st34" cx="100.6" cy="157.3" r="2.3"/>
<circle class="st34" cx="98.3" cy="163.3" r="2.3"/>
<circle class="st34" cx="96.3" cy="253.7" r="1.7"/>
<circle class="st34" cx="99.9" cy="257" r="1.7"/>
<circle class="st34" cx="98.2" cy="261.3" r="1.7"/>
<circle class="st34" cx="465" cy="373.6" r="3.2"/>
<circle class="st34" cx="479.7" cy="369.7" r="3.2"/>
<circle class="st34" cx="479.7" cy="382.8" r="3.2"/>
<circle class="st34" cx="469.7" cy="388.3" r="3.2"/>
<circle class="st34" cx="476.5" cy="395.9" r="3.2"/>
<circle class="st34" cx="475.2" cy="410.3" r="3.2"/>
<g class="st1">
	<g>
		<defs>
			<polyline id="SVGID_17_" points="723.2,327.1 695.7,327.1 695.7,408.4 723.2,408.4 			"/>
		</defs>
		<clipPath id="SVGID_18_">
			<use xlink:href="#SVGID_17_"  style="overflow:visible;"/>
		</clipPath>
		<path class="st35" d="M696,327.3V363c0,0,5.2,45.2,13.6,45.2c8.4,0,13.4-44.2,13.4-44.2v-36.7H696z"/>
		<path class="st36" d="M696,327.3V363c0,0,5.2,45.2,13.6,45.2c8.4,0,13.4-44.2,13.4-44.2v-36.7H696z"/>
	</g>
</g>
<path class="st32" d="M694.1,324.1v2c-7.5,1.3-11-1.1-11-1.1l0.5-0.7l-2.4-1.5l4.3-6.3l-19.9-12.9l-4.3,6.3l-2.4-1.5l-1.7,2.5
	l24.7,16l0.7-1l-0.3,0.5c4.5,2.8,11.9,1.4,11.9,1.4v0.4h31.1v-4H694.1z"/>
<path class="st37" d="M718.6,382.8c-2.1,10.2-6.5,22.3-9.1,22.3c-2.7,0-6-10.3-8.9-22.3H718.6z"/>
<g>
	<g>
		<defs>
			<path id="SVGID_19_" d="M697.3,357.7"/>
		</defs>
		<clipPath id="SVGID_20_">
			<use xlink:href="#SVGID_19_"  style="overflow:visible;"/>
		</clipPath>
	</g>
</g>
<line class="st33" x1="696" y1="341.1" x2="702.4" y2="341.1"/>
<line class="st5" x1="696" y1="341.1" x2="702.4" y2="341.1"/>
<line class="st33" x1="696" y1="344.6" x2="702.4" y2="344.6"/>
<line class="st5" x1="696" y1="344.6" x2="702.4" y2="344.6"/>
<line class="st33" x1="696" y1="348" x2="702.4" y2="348"/>
<line class="st6" x1="696" y1="348" x2="702.4" y2="348"/>
<line class="st33" x1="696" y1="351.5" x2="702.4" y2="351.5"/>
<line class="st5" x1="696" y1="351.5" x2="702.4" y2="351.5"/>
<line class="st33" x1="696" y1="354.9" x2="702.4" y2="354.9"/>
<line class="st5" x1="696" y1="354.9" x2="702.4" y2="354.9"/>
<g>
	<path class="st7" d="M524.4,353.4c150.7-0.3,150.7-0.3,150.7-0.3"/>
	<polygon class="st7" points="660.5,344.2 677.2,353.4 660.5,362.2 	"/>
</g>
<text transform="matrix(1.0096 0 0 1 521.9224 328.1206)"><tspan x="0" y="0" class="st15 st16 st22">change of color</tspan><tspan x="0" y="15.6" class="st15 st16 st22">if protein of interest present</tspan></text>
<g>
	<path class="st7" d="M102.4,353.4c332.4-0.3,332.4-0.3,332.4-0.3"/>
	<polygon class="st7" points="402.6,344.1 439.5,353.4 402.6,362.1 	"/>
</g>
<text transform="matrix(1 0 0 1 167.3846 351.6238)" class="st32 st16 st17">Wash</text>
<text transform="matrix(1 0 0 1 247.1215 349.6234)" class="st15 st16 st17">Wash</text>
<path class="st5" d="M183,275.8c0,0-5.4,52.7,51.7,77.2"/>
<path class="st5" d="M266.2,275.8c0,0-5.4,52.7,51.7,77.2"/>
<text transform="matrix(1 0 0 1 159.8285 196.0019)" class="st21 st16 st22">+ H</text>
<text transform="matrix(0.583 0 0 0.583 180.4203 200.331)" class="st21 st16 st22">2</text>
<text transform="matrix(1 0 0 1 184.6351 196.0019)" class="st21 st16 st22">O</text>
<path class="st5" d="M98.1,275.8c0,0-5.4,52.7,51.7,77.2"/>
<path class="st38" d="M80.2,326.8c0,0-0.5,4.4-6.3,11.1S65,353.5,65,353.5s-2.2,7.5,0,12.5c2.2,5,7.1,8.6,7.1,8.6s3.7,2.6,10.3,1.7
	c6.6-0.9,8.4-4.1,8.4-4.1s4-3.4,4.9-8.8c0.9-5.4-0.7-9.6-0.7-9.6s0.1-1.4-2.4-6.4c-2.5-5-6.8-11.1-6.8-11.1L80.2,326.8z"/>
</svg>
